<?xml version="1.0" encoding="utf-8"?>
<!-- Generator: Adobe Illustrator 28.0.0, SVG Export Plug-In . SVG Version: 6.00 Build 0)  -->
<svg version="1.1" xmlns="http://www.w3.org/2000/svg" xmlns:xlink="http://www.w3.org/1999/xlink" x="0px" y="0px"
	 viewBox="0 0 1320 660" style="enable-background:new 0 0 1320 660;" xml:space="preserve">
<style type="text/css">
	.st0{fill:#FFFFFF;}
	.st1{fill:#094975;}
	.st2{fill:#231F20;}
	.st3{display:none;}
	.st4{display:inline;fill:#FFFFFF;stroke:#231F20;stroke-miterlimit:10;}
	.st5{display:inline;fill:#094975;}
	.st6{display:inline;fill:#231F20;}
	.st7{font-family:'Microsoft-Yi-Baiti';}
	.st8{font-size:78.8169px;}
	.st9{display:inline;fill:none;stroke:#231F20;stroke-width:0.25;stroke-miterlimit:10;}
</style>
<g id="Layer_1">
	<rect x="0.9" y="0.9" class="st0" width="1318.2" height="658.2"/>
	<g>
		<rect x="345.1" y="44.3" class="st1" width="277.8" height="277.4"/>
	</g>
	<g>
		<rect x="345.1" y="347" class="st1" width="277.8" height="277.4"/>
	</g>
	<g>
		
			<rect x="42.2" y="44.1" transform="matrix(4.496054e-11 -1 1 4.496054e-11 -2.1045 363.9159)" class="st1" width="277.4" height="277.8"/>
	</g>
	<g>
		
			<rect x="42.2" y="346.8" transform="matrix(4.496054e-11 -1 1 4.496054e-11 -304.7943 666.6057)" class="st1" width="277.4" height="277.8"/>
	</g>
	<g>
		<path class="st2" d="M732.6,66.4c-0.5-2.3-1.5-4.4-2.9-6.4c-1.4-2-3.2-3.7-5.3-5.2c-2.1-1.5-4.5-2.6-7.3-3.5
			c-2.7-0.8-5.7-1.3-8.8-1.3c-4.5,0-8.5,0.7-12.2,2.2c-3.6,1.5-6.7,3.6-9.3,6.4c-2.6,2.8-4.5,6.4-5.9,10.6
			c-1.4,4.2-2.1,9.2-2.1,14.8s0.7,10.6,2.1,14.9c1.4,4.3,3.4,7.9,5.9,10.8c2.6,2.9,5.6,5.1,9.2,6.6c3.6,1.5,7.6,2.3,12,2.3
			c6.7,0,12.2-1.5,16.5-4.5c4.3-3,7-7.3,8-13.1h5.8c-0.6,3.7-1.7,6.9-3.5,9.8c-1.7,2.9-3.9,5.3-6.6,7.3c-2.6,2-5.7,3.5-9.1,4.5
			c-3.4,1-7.1,1.5-11.1,1.5c-5.4,0-10.3-0.9-14.7-2.8c-4.3-1.9-8-4.6-11.1-8.1c-3.1-3.5-5.4-7.7-7-12.6c-1.6-4.9-2.5-10.5-2.5-16.6
			c0-6.1,0.8-11.6,2.5-16.5c1.6-4.9,4-9,7.1-12.5c3.1-3.4,6.8-6.1,11.1-8c4.3-1.9,9.2-2.8,14.6-2.8c3.7,0,7.2,0.5,10.6,1.6
			c3.4,1.1,6.4,2.6,9.1,4.5c2.7,1.9,4.9,4.3,6.8,7c1.8,2.7,3.1,5.7,3.8,8.9H732.6z"/>
		<path class="st2" d="M788.2,44.3c5.3,0,10.1,0.9,14.6,2.8c4.5,1.9,8.3,4.6,11.5,8c3.2,3.5,5.7,7.6,7.5,12.5
			c1.8,4.9,2.7,10.3,2.7,16.3c0,6-0.9,11.4-2.7,16.3c-1.8,4.9-4.3,9.2-7.5,12.7c-3.2,3.5-7,6.3-11.5,8.2c-4.4,1.9-9.3,2.9-14.7,2.9
			c-5.4,0-10.3-1-14.7-2.9c-4.5-1.9-8.3-4.7-11.5-8.2c-3.2-3.5-5.7-7.7-7.5-12.7c-1.8-4.9-2.7-10.4-2.7-16.4
			c0-6.1,0.9-11.5,2.7-16.4c1.8-4.9,4.3-9,7.6-12.5c3.2-3.4,7.1-6.1,11.5-8C778,45.3,782.9,44.3,788.2,44.3z M788.1,118.6
			c4.4,0,8.5-0.8,12.2-2.3c3.7-1.5,7-3.8,9.7-6.7c2.7-3,4.8-6.6,6.3-10.9c1.5-4.3,2.3-9.2,2.3-14.7c0-5.5-0.8-10.4-2.3-14.6
			c-1.5-4.2-3.6-7.8-6.3-10.7c-2.7-2.9-5.9-5.1-9.6-6.5c-3.7-1.5-7.7-2.2-12.1-2.2c-4.5,0-8.6,0.8-12.3,2.3c-3.7,1.5-7,3.7-9.7,6.6
			c-2.7,2.9-4.9,6.4-6.4,10.7c-1.5,4.2-2.3,9.1-2.3,14.6s0.8,10.4,2.3,14.7c1.5,4.3,3.6,7.9,6.3,10.9c2.7,3,5.9,5.2,9.7,6.7
			C779.7,117.8,783.7,118.6,788.1,118.6z"/>
		<path class="st2" d="M902.7,122.8h-6.2l-7.7-20.5c-0.8-2-1.6-3.8-2.5-5.6c-0.9-1.7-2-3.2-3.2-4.5c-1.2-1.3-2.6-2.3-4.2-3.1
			c-1.6-0.7-3.4-1.1-5.5-1.1h-27v34.8h-5.6v-77h34.7c3.2,0,6.4,0.3,9.4,0.9c3,0.6,5.7,1.6,8.1,3.1c2.4,1.5,4.3,3.6,5.7,6.2
			c1.4,2.7,2.1,6,2.1,10.2c0,2.6-0.3,5-1,7.2c-0.6,2.2-1.6,4.2-2.9,6c-1.3,1.8-2.9,3.3-4.9,4.5c-2,1.2-4.3,2.1-7,2.7
			c1.5,1.1,2.7,2.2,3.6,3.2c0.9,1,1.8,2.1,2.4,3.3c0.7,1.2,1.3,2.5,1.8,3.9c0.5,1.4,1.2,3,1.9,4.9L902.7,122.8z M846.4,82.4h26.8
			c3.8,0,7.1-0.3,9.8-0.8c2.7-0.6,5-1.5,6.7-2.8c1.8-1.3,3.1-3,3.9-5c0.8-2.1,1.3-4.6,1.3-7.6c0-5.3-1.7-9.1-5-11.4
			c-3.4-2.3-8.4-3.4-15-3.4h-28.4V82.4z"/>
		<path class="st2" d="M979.4,122.8H972l-47.1-70.4v70.4h-5.6v-77h7.8l46.7,70.2V45.7h5.6V122.8z"/>
		<path class="st2" d="M1054.8,122.8H999v-77h53.8v5.6h-48.2v28.5h45.2v5.6h-45.2v31.7h50.1V122.8z"/>
		<path class="st2" d="M1117.7,122.8h-45.4v-77h5.6v71.4h39.8V122.8z"/>
		<path class="st2" d="M1178.6,122.8h-45.4v-77h5.6v71.4h39.8V122.8z"/>
	</g>
	<g>
		<path class="st2" d="M704,249.8c-5.2,0-9.8-0.6-13.7-1.7c-3.9-1.1-7.2-2.7-9.8-4.7c-2.7-2-4.7-4.5-6.1-7.4
			c-1.4-2.9-2.2-6.1-2.5-9.7h5.6c0.6,3.5,1.6,6.4,3.2,8.7c1.6,2.3,3.5,4.1,5.7,5.5c2.3,1.4,4.9,2.3,7.8,2.9c2.9,0.6,6,0.8,9.3,0.8
			c3.4,0,6.5-0.4,9.3-1.1c2.7-0.7,5.1-1.8,7-3.2c1.9-1.4,3.4-3,4.5-5c1-1.9,1.6-4.1,1.6-6.6c0-2.6-0.4-4.7-1.3-6.5
			c-0.9-1.8-2.4-3.3-4.5-4.6c-2.1-1.3-4.9-2.5-8.3-3.5c-3.5-1-7.7-2.1-12.9-3.2c-4.2-0.9-7.9-2-10.9-3.2c-3-1.2-5.5-2.6-7.5-4.3
			c-2-1.6-3.4-3.5-4.4-5.6c-0.9-2.1-1.4-4.5-1.4-7.3c0-3,0.6-5.7,1.9-8.2c1.3-2.5,3.1-4.6,5.4-6.4c2.3-1.8,5.1-3.2,8.4-4.2
			c3.3-1,6.9-1.5,10.8-1.5s7.6,0.5,10.9,1.4c3.3,0.9,6.2,2.2,8.6,4c2.5,1.7,4.5,3.8,6,6.3c1.5,2.5,2.5,5.3,2.9,8.4h-5.4
			c-0.5-2.1-1.4-4-2.5-5.8c-1.2-1.8-2.7-3.3-4.5-4.6c-1.9-1.3-4.1-2.3-6.6-3c-2.6-0.7-5.5-1.1-8.8-1.1c-6.9,0-12.1,1.3-15.7,3.8
			c-3.5,2.5-5.3,6-5.3,10.4c0,2,0.3,3.8,1,5.3c0.7,1.5,1.8,2.8,3.3,4c1.6,1.2,3.7,2.3,6.2,3.2c2.6,0.9,5.8,1.8,9.7,2.6
			c2.3,0.5,4.6,1,7,1.5c2.4,0.5,4.7,1.1,7,1.8c2.3,0.7,4.5,1.6,6.5,2.6c2.1,1,3.9,2.3,5.4,3.8c1.5,1.5,2.7,3.3,3.7,5.4
			s1.4,4.6,1.4,7.4c0,3.3-0.7,6.3-2.1,9c-1.4,2.7-3.3,5.1-5.8,7.1c-2.5,2-5.4,3.5-8.8,4.6C711.7,249.2,708,249.8,704,249.8z"/>
		<path class="st2" d="M820.5,248.4h-5.6v-67.8l-27.8,67.8h-5.9l-27.7-67.8v67.8h-5.6v-77h8.2l28.1,70l28.3-70h8V248.4z"/>
		<path class="st2" d="M848.1,248.4h-5.6v-77h5.6V248.4z"/>
		<path class="st2" d="M923.5,177h-27v71.4h-5.6V177h-26.7v-5.6h59.3V177z"/>
		<path class="st2" d="M996.3,248.4h-5.7V210H943v38.3h-5.6v-77h5.6v33.1h47.6v-33.1h5.7V248.4z"/>
	</g>
	<g>
		<path class="st2" d="M747.5,373.6h-5.6v-67.8l-27.8,67.8h-5.9l-27.7-67.8v67.8h-5.6v-77h8.2l28.1,70l28.3-70h8V373.6z"/>
		<path class="st2" d="M775,373.6h-5.6v-77h5.6V373.6z"/>
		<path class="st2" d="M853.2,373.6h-55.7v-77h53.8v5.6h-48.2v28.5h45.2v5.6h-45.2v31.7h50.1V373.6z"/>
		<path class="st2" d="M932.3,373.6h-6.2l-7.7-20.5c-0.8-2-1.6-3.8-2.5-5.6c-0.9-1.7-2-3.2-3.2-4.5c-1.2-1.3-2.6-2.3-4.2-3.1
			c-1.6-0.7-3.4-1.1-5.5-1.1h-27v34.8h-5.6v-77h34.7c3.2,0,6.4,0.3,9.4,0.9c3,0.6,5.7,1.6,8.1,3.1c2.4,1.5,4.3,3.6,5.7,6.2
			c1.4,2.7,2.1,6,2.1,10.2c0,2.6-0.3,5-1,7.2c-0.6,2.2-1.6,4.2-2.9,6c-1.3,1.8-2.9,3.3-4.9,4.5c-2,1.2-4.3,2.1-7,2.7
			c1.5,1.1,2.7,2.2,3.6,3.2c0.9,1,1.8,2.1,2.4,3.3c0.7,1.2,1.3,2.5,1.8,3.9c0.5,1.4,1.2,3,1.9,4.9L932.3,373.6z M876,333.2h26.8
			c3.8,0,7.1-0.3,9.8-0.8c2.7-0.6,5-1.5,6.7-2.8c1.8-1.3,3.1-3,3.9-5s1.3-4.6,1.3-7.6c0-5.3-1.7-9.1-5-11.4c-3.4-2.3-8.4-3.4-15-3.4
			H876V333.2z"/>
		<path class="st2" d="M995.2,373.6h-45.4v-77h5.6v71.4h39.8V373.6z"/>
	</g>
	<g>
		<path class="st2" d="M731.7,477.5c0,7-2.4,12.3-7.1,16c-4.7,3.7-11.7,5.6-20.8,5.6h-28v-77h27.9c7.8,0,13.7,1.5,17.8,4.4
			c4.1,2.9,6.2,7.6,6.2,14c0,1.8-0.2,3.6-0.5,5.5c-0.4,1.9-1,3.7-1.9,5.3c-0.9,1.6-2.2,3.1-3.9,4.4c-1.6,1.3-3.8,2.2-6.3,2.8
			c3.6,0.3,6.5,1.1,8.7,2.4c2.2,1.2,3.9,2.8,5.1,4.5c1.2,1.8,2,3.7,2.4,5.9C731.5,473.4,731.7,475.5,731.7,477.5z M681.4,455.9h20.7
			c6.9,0,11.9-1.1,15.1-3.3c3.2-2.2,4.9-5.9,4.9-11.1c0-4.7-1.5-8.2-4.5-10.4c-3-2.3-7.8-3.4-14.4-3.4l-21.8,0.1V455.9z
			 M681.4,493.4h22.3c14.6,0,21.8-5.3,21.8-16c0-2.8-0.4-5.2-1.1-7.2c-0.8-2-2-3.7-3.8-5c-1.8-1.3-4.2-2.3-7.2-2.9
			c-3-0.6-6.7-0.9-11.2-0.9h-20.8V493.4z"/>
		<path class="st2" d="M810.6,499.1h-6.2l-7.7-20.5c-0.8-2-1.6-3.8-2.5-5.6c-0.9-1.7-2-3.2-3.2-4.5c-1.2-1.3-2.6-2.3-4.2-3.1
			c-1.6-0.7-3.4-1.1-5.5-1.1h-27v34.8h-5.6v-77h34.7c3.2,0,6.4,0.3,9.4,0.9c3,0.6,5.7,1.6,8.1,3.1c2.4,1.5,4.3,3.6,5.7,6.2
			c1.4,2.6,2.1,6,2.1,10.2c0,2.6-0.3,5-1,7.2s-1.6,4.2-2.9,6c-1.3,1.8-2.9,3.3-4.9,4.5c-2,1.2-4.3,2.1-7,2.7
			c1.5,1.1,2.7,2.2,3.6,3.2c0.9,1,1.8,2.1,2.4,3.3c0.7,1.2,1.3,2.5,1.8,3.9c0.5,1.4,1.2,3,1.9,4.9L810.6,499.1z M754.3,458.7h26.8
			c3.8,0,7.1-0.3,9.8-0.8c2.7-0.6,5-1.5,6.7-2.8c1.8-1.3,3.1-3,3.9-5c0.8-2.1,1.3-4.6,1.3-7.6c0-5.3-1.7-9.1-5-11.4
			c-3.4-2.3-8.4-3.4-15-3.4h-28.4V458.7z"/>
		<path class="st2" d="M857.2,500.5c-4.6,0-8.5-0.5-11.8-1.4c-3.3-1-6-2.3-8.1-3.9c-2.2-1.6-3.9-3.6-5.1-5.8c-1.3-2.2-2.2-4.5-2.9-7
			c-0.7-2.5-1.1-5.1-1.2-7.7c-0.2-2.7-0.2-5.3-0.2-7.8V422h5.6v44.5c0,5.9,0.5,10.6,1.6,14.3c1.1,3.7,2.6,6.6,4.7,8.6
			c2,2.1,4.5,3.5,7.5,4.2c2.9,0.8,6.3,1.1,10.1,1.1c3.9,0,7.3-0.4,10.3-1.1c3-0.7,5.5-2.2,7.5-4.3c2-2.1,3.5-5,4.5-8.6
			c1-3.7,1.6-8.4,1.6-14.3V422h5.6v44.7c0,5.3-0.4,10-1.3,14.2c-0.9,4.2-2.4,7.7-4.7,10.6c-2.2,2.9-5.2,5.1-9,6.6
			C867.9,499.7,863.1,500.5,857.2,500.5z"/>
		<path class="st2" d="M959.9,427.7h-27v71.4h-5.6v-71.4h-26.7V422h59.3V427.7z"/>
		<path class="st2" d="M1006.4,420.6c5.3,0,10.1,0.9,14.6,2.8c4.5,1.9,8.3,4.6,11.5,8c3.2,3.5,5.7,7.6,7.5,12.5
			c1.8,4.9,2.7,10.3,2.7,16.3c0,6-0.9,11.4-2.7,16.3c-1.8,4.9-4.3,9.2-7.5,12.7c-3.2,3.5-7,6.3-11.5,8.2c-4.4,1.9-9.3,2.9-14.7,2.9
			c-5.4,0-10.3-1-14.7-2.9c-4.5-1.9-8.3-4.7-11.5-8.2c-3.2-3.5-5.7-7.7-7.5-12.7c-1.8-4.9-2.7-10.4-2.7-16.4
			c0-6.1,0.9-11.5,2.7-16.4c1.8-4.9,4.3-9,7.6-12.5c3.2-3.4,7.1-6.1,11.5-8C996.2,421.6,1001.1,420.6,1006.4,420.6z M1006.3,494.9
			c4.4,0,8.5-0.8,12.2-2.3c3.7-1.5,7-3.8,9.7-6.7c2.7-3,4.8-6.6,6.3-10.9c1.5-4.3,2.3-9.2,2.3-14.7c0-5.5-0.8-10.4-2.3-14.6
			c-1.5-4.2-3.6-7.8-6.3-10.7c-2.7-2.9-5.9-5.1-9.6-6.5c-3.7-1.5-7.7-2.2-12.1-2.2c-4.5,0-8.6,0.8-12.3,2.3c-3.7,1.5-7,3.7-9.7,6.6
			c-2.7,2.9-4.9,6.4-6.4,10.7c-1.5,4.2-2.3,9.1-2.3,14.6s0.8,10.4,2.3,14.7c1.5,4.3,3.6,7.9,6.3,10.9c2.7,3,5.9,5.2,9.7,6.7
			C997.8,494.1,1001.9,494.9,1006.3,494.9z"/>
		<path class="st2" d="M1115,442.6c-0.5-2.3-1.5-4.4-2.9-6.4c-1.4-2-3.2-3.7-5.3-5.2c-2.1-1.5-4.5-2.6-7.3-3.5
			c-2.7-0.8-5.7-1.3-8.8-1.3c-4.5,0-8.5,0.7-12.2,2.2c-3.6,1.5-6.7,3.6-9.3,6.4c-2.6,2.8-4.5,6.4-5.9,10.6
			c-1.4,4.2-2.1,9.2-2.1,14.8c0,5.6,0.7,10.6,2.1,14.9s3.4,7.9,5.9,10.8c2.6,2.9,5.6,5.1,9.2,6.6c3.6,1.5,7.6,2.3,12,2.3
			c6.7,0,12.2-1.5,16.5-4.5c4.3-3,7-7.3,8-13.1h5.8c-0.6,3.7-1.7,6.9-3.5,9.8c-1.7,2.9-3.9,5.3-6.6,7.3c-2.6,2-5.7,3.5-9.1,4.5
			c-3.4,1-7.1,1.5-11.1,1.5c-5.4,0-10.3-0.9-14.7-2.8c-4.3-1.9-8-4.6-11.1-8.1c-3.1-3.5-5.4-7.7-7-12.6c-1.6-4.9-2.5-10.5-2.5-16.6
			c0-6.1,0.8-11.6,2.5-16.5c1.6-4.9,4-9,7.1-12.5c3.1-3.4,6.8-6.1,11.1-8c4.3-1.9,9.2-2.8,14.6-2.8c3.7,0,7.2,0.5,10.6,1.6
			c3.4,1.1,6.4,2.6,9.1,4.5c2.7,1.9,4.9,4.3,6.8,7c1.8,2.7,3.1,5.7,3.8,8.9H1115z"/>
		<path class="st2" d="M1199.1,499.1h-6.8l-9.4-24.8h-38c-1.4,3.9-2.8,8-4.4,12.3c-1.6,4.3-3.1,8.5-4.6,12.4h-6
			c2.5-6.7,5-13.2,7.5-19.6c2.5-6.4,4.9-12.7,7.4-19c2.4-6.3,4.9-12.7,7.4-19c2.5-6.4,5-12.9,7.5-19.5h8L1199.1,499.1z
			 M1181.3,469.9l-17.9-42.8l-17,42.8H1181.3z"/>
		<path class="st2" d="M1243.8,420.6c5.3,0,10.1,0.9,14.6,2.8s8.3,4.6,11.5,8c3.2,3.5,5.7,7.6,7.5,12.5c1.8,4.9,2.7,10.3,2.7,16.3
			c0,6-0.9,11.4-2.7,16.3c-1.8,4.9-4.3,9.2-7.5,12.7c-3.2,3.5-7,6.3-11.5,8.2c-4.4,1.9-9.3,2.9-14.7,2.9c-5.4,0-10.3-1-14.7-2.9
			c-4.5-1.9-8.3-4.7-11.5-8.2c-3.2-3.5-5.7-7.7-7.5-12.7c-1.8-4.9-2.7-10.4-2.7-16.4c0-6.1,0.9-11.5,2.7-16.4
			c1.8-4.9,4.3-9,7.6-12.5c3.2-3.4,7.1-6.1,11.5-8C1233.6,421.6,1238.4,420.6,1243.8,420.6z M1243.7,494.9c4.4,0,8.5-0.8,12.2-2.3
			c3.7-1.5,7-3.8,9.7-6.7c2.7-3,4.8-6.6,6.3-10.9c1.5-4.3,2.3-9.2,2.3-14.7c0-5.5-0.8-10.4-2.3-14.6c-1.5-4.2-3.6-7.8-6.3-10.7
			c-2.7-2.9-5.9-5.1-9.6-6.5c-3.7-1.5-7.7-2.2-12.1-2.2c-4.5,0-8.6,0.8-12.3,2.3c-3.7,1.5-7,3.7-9.7,6.6c-2.7,2.9-4.9,6.4-6.4,10.7
			c-1.5,4.2-2.3,9.1-2.3,14.6s0.8,10.4,2.3,14.7c1.5,4.3,3.6,7.9,6.3,10.9c2.7,3,5.9,5.2,9.7,6.7
			C1235.2,494.1,1239.3,494.9,1243.7,494.9z"/>
	</g>
	<g>
		<path class="st2" d="M731.7,602.8c0,7-2.4,12.3-7.1,16c-4.7,3.7-11.7,5.6-20.8,5.6h-28v-77h27.9c7.8,0,13.7,1.5,17.8,4.4
			c4.1,2.9,6.2,7.6,6.2,14c0,1.8-0.2,3.6-0.5,5.5s-1,3.7-1.9,5.3c-0.9,1.6-2.2,3.1-3.9,4.4c-1.6,1.3-3.8,2.2-6.3,2.8
			c3.6,0.3,6.5,1.1,8.7,2.4c2.2,1.2,3.9,2.8,5.1,4.5c1.2,1.8,2,3.7,2.4,5.9C731.5,598.7,731.7,600.8,731.7,602.8z M681.4,581.2h20.7
			c6.9,0,11.9-1.1,15.1-3.3c3.2-2.2,4.9-5.9,4.9-11.1c0-4.7-1.5-8.2-4.5-10.4c-3-2.3-7.8-3.4-14.4-3.4l-21.8,0.1V581.2z
			 M681.4,618.8h22.3c14.6,0,21.8-5.3,21.8-16c0-2.8-0.4-5.2-1.1-7.2c-0.8-2-2-3.7-3.8-5s-4.2-2.3-7.2-2.9c-3-0.6-6.7-0.9-11.2-0.9
			h-20.8V618.8z"/>
		<path class="st2" d="M778.2,625.8c-4.6,0-8.5-0.5-11.8-1.4c-3.3-1-6-2.3-8.1-3.9c-2.2-1.6-3.9-3.6-5.1-5.8c-1.3-2.2-2.2-4.5-2.9-7
			c-0.7-2.5-1.1-5.1-1.2-7.7c-0.2-2.7-0.2-5.3-0.2-7.8v-44.7h5.6v44.5c0,5.9,0.5,10.6,1.6,14.3c1.1,3.7,2.6,6.6,4.7,8.6
			c2,2.1,4.5,3.5,7.5,4.2c2.9,0.8,6.3,1.1,10.1,1.1c3.9,0,7.3-0.4,10.3-1.1c3-0.7,5.5-2.2,7.5-4.3c2-2.1,3.5-5,4.5-8.6
			c1-3.7,1.6-8.4,1.6-14.3v-44.5h5.6v44.7c0,5.3-0.4,10-1.3,14.2c-0.9,4.2-2.4,7.7-4.7,10.6c-2.2,2.9-5.2,5.1-9,6.6
			C788.8,625.1,784,625.8,778.2,625.8z"/>
		<path class="st2" d="M889.6,624.4h-6.2l-7.7-20.5c-0.8-2-1.6-3.8-2.5-5.6c-0.9-1.7-2-3.2-3.2-4.5c-1.2-1.3-2.6-2.3-4.2-3.1
			c-1.6-0.7-3.4-1.1-5.5-1.1h-27v34.8h-5.6v-77h34.7c3.2,0,6.4,0.3,9.4,0.9c3,0.6,5.7,1.6,8.1,3.1c2.4,1.5,4.3,3.6,5.7,6.2
			c1.4,2.6,2.1,6,2.1,10.2c0,2.6-0.3,5-1,7.2c-0.6,2.2-1.6,4.2-2.9,6c-1.3,1.8-2.9,3.3-4.9,4.5c-2,1.2-4.3,2.1-7,2.7
			c1.5,1.1,2.7,2.2,3.6,3.2c0.9,1,1.8,2.1,2.4,3.3c0.7,1.2,1.3,2.5,1.8,3.9c0.5,1.4,1.2,3,1.9,4.9L889.6,624.4z M833.3,584h26.8
			c3.8,0,7.1-0.3,9.8-0.8c2.7-0.6,5-1.5,6.7-2.8c1.8-1.3,3.1-3,3.9-5c0.8-2.1,1.3-4.6,1.3-7.6c0-5.3-1.7-9.1-5-11.4
			c-3.4-2.3-8.4-3.4-15-3.4h-28.4V584z"/>
		<path class="st2" d="M959.9,553h-27v71.4h-5.6V553h-26.7v-5.6h59.3V553z"/>
		<path class="st2" d="M1006.4,546c5.3,0,10.1,0.9,14.6,2.8c4.5,1.9,8.3,4.6,11.5,8c3.2,3.5,5.7,7.6,7.5,12.5
			c1.8,4.9,2.7,10.3,2.7,16.3c0,6-0.9,11.4-2.7,16.3c-1.8,4.9-4.3,9.2-7.5,12.7c-3.2,3.5-7,6.3-11.5,8.2s-9.3,2.9-14.7,2.9
			c-5.4,0-10.3-1-14.7-2.9c-4.5-1.9-8.3-4.7-11.5-8.2c-3.2-3.5-5.7-7.7-7.5-12.7c-1.8-4.9-2.7-10.4-2.7-16.4
			c0-6.1,0.9-11.5,2.7-16.4c1.8-4.9,4.3-9,7.6-12.5c3.2-3.4,7.1-6.1,11.5-8C996.2,546.9,1001.1,546,1006.4,546z M1006.3,620.2
			c4.4,0,8.5-0.8,12.2-2.3c3.7-1.5,7-3.8,9.7-6.7s4.8-6.6,6.3-10.9c1.5-4.3,2.3-9.2,2.3-14.7c0-5.5-0.8-10.4-2.3-14.6
			c-1.5-4.2-3.6-7.8-6.3-10.7c-2.7-2.9-5.9-5.1-9.6-6.5c-3.7-1.5-7.7-2.2-12.1-2.2c-4.5,0-8.6,0.8-12.3,2.3c-3.7,1.5-7,3.7-9.7,6.6
			c-2.7,2.9-4.9,6.4-6.4,10.7c-1.5,4.2-2.3,9.1-2.3,14.6s0.8,10.4,2.3,14.7c1.5,4.3,3.6,7.9,6.3,10.9c2.7,3,5.9,5.2,9.7,6.7
			C997.8,619.4,1001.9,620.2,1006.3,620.2z"/>
		<path class="st2" d="M1118.5,624.4h-7.4l-47.1-70.4v70.4h-5.6v-77h7.8l46.7,70.2v-70.2h5.6V624.4z"/>
	</g>
	<g>
		<rect x="665.6" y="146.9" class="st2" width="644.5" height="0.5"/>
	</g>
	<g>
		<rect x="665.6" y="272.2" class="st2" width="644.5" height="0.5"/>
	</g>
	<g>
		<rect x="665.6" y="397.5" class="st2" width="644.5" height="0.5"/>
	</g>
	<g>
		<rect x="665.6" y="522.9" class="st2" width="644.5" height="0.5"/>
	</g>
</g>
<g id="Original_Font_and_Stroke" class="st3">
	<rect x="0.5" y="0" class="st4" width="720" height="360"/>
	<rect x="188.5" y="23.8" class="st5" width="151.8" height="151.8"/>
	<rect x="188.5" y="189.3" class="st5" width="151.8" height="151.8"/>
	
		<rect x="22.9" y="23.8" transform="matrix(4.489659e-11 -1 1 4.489659e-11 -0.8305 198.4562)" class="st5" width="151.8" height="151.8"/>
	
		<rect x="22.9" y="189.3" transform="matrix(4.489659e-11 -1 1 4.489659e-11 -166.3926 364.0183)" class="st5" width="151.8" height="151.8"/>
	<text transform="matrix(1 0 0 1 364.0324 66.701)" class="st6 st7 st8">CORNELL</text>
	<text transform="matrix(1 0 0 1 363.5488 135.4047)" class="st6 st7 st8">SMITH</text>
	<text transform="matrix(1 0 0 1 363.5488 203.8755)" class="st6 st7 st8">MIERL</text>
	<text transform="matrix(1 0 0 1 363.5488 272.5219)" class="st6 st7 st8">BRUTOCAO</text>
	<text transform="matrix(1 0 0 1 363.5488 341.0805)" class="st6 st7 st8">BURTON</text>
	<line class="st9" x1="363.5" y1="80" x2="715.6" y2="80"/>
	<line class="st9" x1="363.5" y1="148.6" x2="715.6" y2="148.6"/>
	<line class="st9" x1="363.5" y1="217.1" x2="715.6" y2="217.1"/>
	<line class="st9" x1="363.5" y1="285.7" x2="715.6" y2="285.7"/>
</g>
</svg>
