<?xml version="1.0" encoding="utf-8"?>
<!-- Generator: Adobe Illustrator 28.0.0, SVG Export Plug-In . SVG Version: 6.00 Build 0)  -->
<svg version="1.1" xmlns="http://www.w3.org/2000/svg" xmlns:xlink="http://www.w3.org/1999/xlink" x="0px" y="0px"
	 viewBox="0 0 1320 1320" style="enable-background:new 0 0 1320 1320;" xml:space="preserve">
<style type="text/css">
	.st0{fill:#01313D;}
	.st1{fill:#3EB877;}
	.st2{fill:#FFFFFF;}
	.st3{fill:#39B54A;}
	.st4{display:none;}
	.st5{display:inline;fill:#01313D;}
	.st6{display:inline;fill:none;stroke:#3EB877;stroke-width:14;stroke-linecap:round;stroke-linejoin:round;stroke-miterlimit:10;}
	.st7{display:inline;}
	.st8{fill:none;stroke:#3EB877;stroke-width:14;stroke-linecap:round;stroke-linejoin:round;stroke-miterlimit:10;}
	.st9{display:inline;fill:#FFFFFF;}
	.st10{font-family:'Calibri';}
	.st11{font-size:122.5969px;}
	.st12{letter-spacing:7.2;}
	.st13{letter-spacing:9.7;}
	.st14{letter-spacing:9.6;}
	.st15{letter-spacing:10.7;}
	.st16{letter-spacing:13.5;}
	.st17{letter-spacing:8.3;}
	.st18{letter-spacing:17.8;}
	.st19{letter-spacing:-0.8;}
	.st20{letter-spacing:9.2;}
	.st21{letter-spacing:6.5;}
	.st22{letter-spacing:7.1;}
	.st23{letter-spacing:6.4;}
	.st24{fill:none;stroke:#3EB877;stroke-width:5;stroke-linecap:round;stroke-linejoin:round;stroke-miterlimit:10;}
	.st25{fill:#39B54A;stroke:#3EB877;stroke-width:4;stroke-linecap:round;stroke-linejoin:round;stroke-miterlimit:10;}
	.st26{fill:none;stroke:#3EB877;stroke-width:4;stroke-linecap:round;stroke-linejoin:round;stroke-miterlimit:10;}
</style>
<g id="Layer_1">
	<g>
		<rect class="st0" width="1320" height="1320"/>
	</g>
	<g>
		<path class="st1" d="M692,701.8h-64c-3.5,0-6.4-2.9-6.4-6.4c0-3.5,2.9-6.4,6.4-6.4h64c3.5,0,6.4,2.9,6.4,6.4
			C698.4,698.9,695.5,701.8,692,701.8z"/>
	</g>
	<g>
		<g>
			<path class="st1" d="M631.9,813.7h-64c-3.5,0-6.4-2.9-6.4-6.4s2.9-6.4,6.4-6.4h64c3.5,0,6.4,2.9,6.4,6.4S635.5,813.7,631.9,813.7
				z"/>
		</g>
		<g>
			<path class="st1" d="M752,813.7h-64c-3.5,0-6.4-2.9-6.4-6.4s2.9-6.4,6.4-6.4h64c3.5,0,6.4,2.9,6.4,6.4S755.6,813.7,752,813.7z"/>
		</g>
	</g>
	<g>
		<path class="st1" d="M781.5,739.1h-243c-3.5,0-6.4-2.9-6.4-6.4s2.9-6.4,6.4-6.4h243c3.5,0,6.4,2.9,6.4,6.4
			S785.1,739.1,781.5,739.1z"/>
	</g>
	<g>
		<g>
			<path class="st1" d="M1051.2,813.7h-243c-3.5,0-6.4-2.9-6.4-6.4s2.9-6.4,6.4-6.4h243c3.5,0,6.4,2.9,6.4,6.4
				S1054.7,813.7,1051.2,813.7z"/>
		</g>
		<g>
			<path class="st1" d="M511.8,813.7h-243c-3.5,0-6.4-2.9-6.4-6.4s2.9-6.4,6.4-6.4h243c3.5,0,6.4,2.9,6.4,6.4
				S515.4,813.7,511.8,813.7z"/>
		</g>
	</g>
	<g>
		<g>
			<path class="st1" d="M983.5,739.1H837.7c-3.5,0-6.4-2.9-6.4-6.4s2.9-6.4,6.4-6.4h145.8c3.5,0,6.4,2.9,6.4,6.4
				S987,739.1,983.5,739.1z"/>
		</g>
		<g>
			<path class="st1" d="M482.3,739.1H336.5c-3.5,0-6.4-2.9-6.4-6.4s2.9-6.4,6.4-6.4h145.8c3.5,0,6.4,2.9,6.4,6.4
				S485.9,739.1,482.3,739.1z"/>
		</g>
	</g>
	<g>
		<g>
			<path class="st1" d="M867.8,776.4H721.9c-3.5,0-6.4-2.9-6.4-6.4c0-3.5,2.9-6.4,6.4-6.4h145.8c3.5,0,6.4,2.9,6.4,6.4
				C874.2,773.5,871.3,776.4,867.8,776.4z"/>
		</g>
		<g>
			<path class="st1" d="M598.1,776.4H452.2c-3.5,0-6.4-2.9-6.4-6.4c0-3.5,2.9-6.4,6.4-6.4h145.8c3.5,0,6.4,2.9,6.4,6.4
				C604.5,773.5,601.6,776.4,598.1,776.4z"/>
		</g>
	</g>
	<g>
		<path class="st1" d="M714.5,501.1c-2.8,0-5.4-1.9-6.2-4.7l-48.6-174.7l-48.1,172.8c-0.9,3.4-4.5,5.4-7.9,4.4
			c-3.4-0.9-5.4-4.5-4.4-7.9l54.3-194.9c0.8-2.8,3.3-4.7,6.2-4.7s5.4,1.9,6.2,4.7L720.7,493c0.9,3.4-1,6.9-4.4,7.9
			C715.7,501.1,715.1,501.1,714.5,501.1z"/>
	</g>
	<g>
		<path class="st1" d="M680.7,621.7h-41.4c-3.5,0-6.4-2.9-6.4-6.4s2.9-6.4,6.4-6.4h41.4c3.5,0,6.4,2.9,6.4,6.4
			S684.2,621.7,680.7,621.7z"/>
	</g>
	<g>
		<g>
			<path class="st1" d="M639.3,621.7H506.7c-2,0-3.9-0.9-5.1-2.5c-1.2-1.6-1.6-3.7-1.1-5.6l66.3-238.2c0.8-2.8,3.3-4.7,6.2-4.7
				c2.9,0,5.4,1.9,6.2,4.7l66.3,238.2c0.5,1.9,0.1,4-1.1,5.6C643.2,620.8,641.3,621.7,639.3,621.7z M515.1,608.9h115.8L573,401
				L515.1,608.9z"/>
		</g>
		<g>
			<path class="st1" d="M813.3,621.7H680.7c-2,0-3.9-0.9-5.1-2.5c-1.2-1.6-1.6-3.7-1.1-5.6l66.3-238.2c0.8-2.8,3.3-4.7,6.2-4.7
				s5.4,1.9,6.2,4.7l66.3,238.2c0.5,1.9,0.1,4-1.1,5.6C817.2,620.8,815.3,621.7,813.3,621.7z M689.1,608.9h115.8L747,401
				L689.1,608.9z"/>
		</g>
		<g>
			<path class="st1" d="M573,739.1c-3.5,0-6.4-2.9-6.4-6.4V377.1c0-3.5,2.9-6.4,6.4-6.4c3.5,0,6.4,2.9,6.4,6.4v355.5
				C579.4,736.2,576.5,739.1,573,739.1z"/>
		</g>
		<g>
			<path class="st1" d="M747,739.1c-3.5,0-6.4-2.9-6.4-6.4V377.1c0-3.5,2.9-6.4,6.4-6.4c3.5,0,6.4,2.9,6.4,6.4v355.5
				C753.4,736.2,750.5,739.1,747,739.1z"/>
		</g>
	</g>
	<g>
		<path class="st1" d="M660,701.8c-3.5,0-6.4-2.9-6.4-6.4V298c0-3.5,2.9-6.4,6.4-6.4s6.4,2.9,6.4,6.4v397.4
			C666.4,698.9,663.5,701.8,660,701.8z"/>
	</g>
	<g>
		<path class="st2" d="M146.9,918.5c0,0.3-0.1,0.5-0.3,0.7c-0.2,0.2-0.5,0.3-0.9,0.5c-0.4,0.1-1,0.2-1.8,0.3
			c-0.7,0.1-1.6,0.1-2.7,0.1c-1.2,0-2.1,0-2.8-0.1c-0.7-0.1-1.3-0.2-1.7-0.3c-0.4-0.1-0.8-0.3-0.9-0.5c-0.2-0.2-0.3-0.4-0.3-0.7V891
			H96.4v27.5c0,0.3-0.1,0.5-0.3,0.7c-0.2,0.2-0.5,0.3-0.9,0.5c-0.4,0.1-1,0.2-1.8,0.3c-0.7,0.1-1.7,0.1-2.8,0.1c-1.1,0-2,0-2.7-0.1
			c-0.8-0.1-1.4-0.2-1.8-0.3c-0.4-0.1-0.8-0.3-0.9-0.5c-0.2-0.2-0.3-0.4-0.3-0.7V859c0-0.3,0.1-0.5,0.3-0.7c0.2-0.2,0.5-0.3,0.9-0.5
			c0.4-0.1,1-0.2,1.8-0.3c0.8-0.1,1.7-0.1,2.7-0.1c1.1,0,2,0,2.8,0.1c0.7,0.1,1.3,0.2,1.8,0.3c0.4,0.1,0.8,0.3,0.9,0.5
			c0.2,0.2,0.3,0.4,0.3,0.7v24.8h39.1V859c0-0.3,0.1-0.5,0.3-0.7c0.2-0.2,0.5-0.3,0.9-0.5c0.4-0.1,1-0.2,1.7-0.3
			c0.7-0.1,1.6-0.1,2.8-0.1c1.1,0,2,0,2.7,0.1c0.7,0.1,1.3,0.2,1.8,0.3c0.4,0.1,0.8,0.3,0.9,0.5c0.2,0.2,0.3,0.4,0.3,0.7V918.5z"/>
		<path class="st2" d="M227,916.3c0,0.6,0,1.1-0.1,1.5c-0.1,0.4-0.2,0.8-0.5,1.1c-0.2,0.3-0.5,0.5-0.8,0.6c-0.3,0.1-0.6,0.2-1,0.2
			h-42c-1,0-2-0.2-2.9-0.7c-0.9-0.5-1.4-1.4-1.4-2.6v-55.3c0-1.2,0.5-2.1,1.4-2.6c0.9-0.5,1.9-0.7,2.9-0.7h41.5c0.4,0,0.7,0.1,1,0.2
			c0.3,0.1,0.5,0.3,0.7,0.6c0.2,0.3,0.3,0.6,0.4,1.1c0.1,0.4,0.2,1,0.2,1.6c0,0.6-0.1,1.1-0.2,1.5c-0.1,0.4-0.3,0.8-0.4,1.1
			c-0.2,0.3-0.4,0.5-0.7,0.6c-0.3,0.1-0.6,0.2-1,0.2h-34.2V884h29.4c0.4,0,0.7,0.1,1,0.2c0.3,0.1,0.5,0.3,0.7,0.6
			c0.2,0.3,0.3,0.6,0.4,1.1c0.1,0.4,0.1,1,0.1,1.6c0,0.6,0,1.1-0.1,1.5c-0.1,0.4-0.2,0.7-0.4,1c-0.2,0.3-0.5,0.4-0.7,0.6
			c-0.3,0.1-0.6,0.2-1,0.2h-29.4v22.2h34.7c0.4,0,0.7,0.1,1,0.2c0.3,0.1,0.6,0.3,0.8,0.6c0.2,0.3,0.4,0.6,0.5,1.1
			C226.9,915.2,227,915.7,227,916.3z"/>
		<path class="st2" d="M324.5,918.5c0,0.3-0.1,0.5-0.2,0.7c-0.1,0.2-0.4,0.3-0.7,0.5c-0.3,0.1-0.8,0.2-1.3,0.3
			c-0.5,0.1-1.2,0.1-2.1,0.1c-0.8,0-1.5,0-2-0.1c-0.6-0.1-1-0.2-1.3-0.3c-0.3-0.1-0.6-0.3-0.7-0.5c-0.1-0.2-0.2-0.4-0.2-0.7v-54
			h-0.1l-22.7,54.2c-0.1,0.2-0.2,0.4-0.4,0.6c-0.2,0.2-0.4,0.3-0.8,0.4c-0.3,0.1-0.8,0.2-1.2,0.2c-0.5,0-1.1,0.1-1.7,0.1
			c-0.7,0-1.3,0-1.8-0.1c-0.5-0.1-0.9-0.2-1.2-0.3c-0.3-0.1-0.6-0.2-0.8-0.4c-0.2-0.2-0.3-0.3-0.4-0.5l-21.7-54.2h0v54
			c0,0.3-0.1,0.5-0.2,0.7c-0.1,0.2-0.4,0.3-0.7,0.5c-0.3,0.1-0.8,0.2-1.3,0.3c-0.5,0.1-1.2,0.1-2.1,0.1c-0.8,0-1.5,0-2-0.1
			c-0.5-0.1-1-0.2-1.3-0.3c-0.3-0.1-0.5-0.3-0.7-0.5c-0.1-0.2-0.2-0.4-0.2-0.7v-57c0-1.3,0.4-2.3,1.1-2.9c0.7-0.6,1.6-0.9,2.5-0.9
			h5.2c1.1,0,2,0.1,2.8,0.3c0.8,0.2,1.5,0.5,2.1,0.9c0.6,0.4,1.1,0.9,1.5,1.6c0.4,0.6,0.8,1.4,1.1,2.3l18.4,44.9h0.2l19.1-44.7
			c0.4-1,0.8-1.8,1.2-2.4s0.9-1.2,1.4-1.6c0.5-0.4,1.1-0.7,1.7-0.9c0.6-0.2,1.4-0.3,2.2-0.3h5.5c0.5,0,1,0.1,1.4,0.2
			c0.5,0.1,0.8,0.4,1.2,0.7c0.3,0.3,0.6,0.7,0.8,1.1c0.2,0.5,0.3,1,0.3,1.7V918.5z"/>
		<path class="st2" d="M402.8,916.1c0,0.6,0,1.2-0.1,1.6c-0.1,0.4-0.3,0.8-0.5,1.1c-0.2,0.3-0.5,0.5-0.8,0.7
			c-0.3,0.1-0.7,0.2-1.1,0.2h-41.4c-1.1,0-2.2-0.2-3.2-0.7c-1-0.5-1.5-1.4-1.5-2.6V859c0-0.3,0.1-0.5,0.3-0.7c0.2-0.2,0.5-0.3,1-0.5
			c0.5-0.1,1.1-0.2,2-0.3c0.8-0.1,1.8-0.1,3-0.1c1.2,0,2.2,0,3,0.1c0.8,0.1,1.4,0.2,1.9,0.3c0.5,0.1,0.8,0.3,1,0.5
			c0.2,0.2,0.3,0.4,0.3,0.7v53.6h33.6c0.4,0,0.8,0.1,1.1,0.2c0.3,0.1,0.6,0.4,0.8,0.6c0.2,0.3,0.4,0.6,0.5,1.1
			C402.7,915,402.8,915.5,402.8,916.1z"/>
		<path class="st2" d="M489.7,888c0,5-0.7,9.5-2.1,13.6c-1.4,4-3.5,7.4-6.4,10.3c-2.8,2.8-6.4,5-10.6,6.5c-4.3,1.5-9.2,2.3-14.9,2.3
			c-5.6,0-10.4-0.7-14.5-2.1c-4.1-1.4-7.5-3.4-10.1-6.1c-2.7-2.6-4.6-5.9-5.9-9.9c-1.3-3.9-2-8.4-2-13.6c0-4.9,0.7-9.3,2.1-13.3
			c1.4-4,3.5-7.4,6.4-10.2c2.8-2.8,6.4-4.9,10.6-6.5c4.3-1.5,9.2-2.3,14.9-2.3c5.5,0,10.2,0.7,14.3,2.1c4.1,1.4,7.4,3.4,10.1,6
			c2.7,2.6,4.7,5.9,6,9.8C489.1,878.6,489.7,883,489.7,888z M479.3,888.6c0-3.5-0.4-6.8-1.1-9.8c-0.7-3-2-5.6-3.7-7.9
			c-1.7-2.2-4.1-4-7-5.2c-2.9-1.2-6.5-1.9-10.8-1.9c-4.3,0-7.9,0.7-10.8,2c-2.9,1.3-5.3,3.1-7.1,5.4c-1.8,2.2-3.1,4.8-3.9,7.8
			c-0.8,3-1.2,6.1-1.2,9.4c0,3.6,0.4,7,1.1,10.1c0.7,3.1,2,5.7,3.7,7.9c1.7,2.2,4,3.9,6.9,5.2c2.9,1.2,6.5,1.8,10.9,1.8
			c4.3,0,8-0.7,10.9-2c2.9-1.3,5.3-3.2,7.1-5.4c1.8-2.3,3.1-4.9,3.8-7.9C478.9,895.1,479.3,892,479.3,888.6z"/>
		<path class="st2" d="M576.4,911c0,0.5,0,1-0.1,1.3c0,0.4-0.1,0.7-0.2,1c-0.1,0.3-0.2,0.5-0.4,0.8c-0.2,0.2-0.5,0.5-0.9,0.8
			c-0.4,0.3-1.3,0.8-2.7,1.5c-1.4,0.7-3.1,1.3-5.1,1.9c-2,0.6-4.4,1.1-7,1.6c-2.7,0.4-5.5,0.6-8.7,0.6c-5.4,0-10.3-0.7-14.7-2
			c-4.4-1.3-8.1-3.3-11.2-5.9c-3.1-2.6-5.5-5.8-7.1-9.7c-1.7-3.8-2.5-8.3-2.5-13.3c0-5.1,0.9-9.7,2.7-13.7c1.8-4,4.3-7.4,7.5-10.2
			c3.2-2.8,7.1-4.9,11.6-6.4c4.5-1.5,9.5-2.2,15-2.2c2.4,0,4.8,0.2,7,0.5c2.3,0.3,4.4,0.8,6.3,1.3c1.9,0.5,3.7,1.1,5.2,1.8
			c1.5,0.7,2.6,1.2,3.1,1.7s1,0.8,1.1,1c0.2,0.2,0.3,0.5,0.4,0.8c0.1,0.3,0.2,0.7,0.3,1.1c0.1,0.4,0.1,0.9,0.1,1.5
			c0,0.6,0,1.2-0.1,1.6c-0.1,0.4-0.2,0.8-0.4,1.1c-0.2,0.3-0.4,0.5-0.6,0.7c-0.2,0.1-0.5,0.2-0.9,0.2c-0.6,0-1.5-0.3-2.5-0.9
			c-1.1-0.6-2.5-1.3-4.2-2.1c-1.7-0.7-3.8-1.4-6.2-2.1c-2.4-0.6-5.4-0.9-8.8-0.9c-3.7,0-7.1,0.6-10.2,1.7c-3.1,1.1-5.7,2.7-7.8,4.9
			c-2.2,2.1-3.8,4.7-5,7.8c-1.2,3.1-1.8,6.6-1.8,10.6c0,3.9,0.6,7.4,1.7,10.4c1.1,3,2.8,5.5,4.9,7.6c2.1,2,4.8,3.6,7.9,4.6
			c3.1,1,6.7,1.6,10.6,1.6c3.3,0,6.2-0.3,8.7-0.9c2.5-0.6,4.6-1.3,6.4-2c1.8-0.7,3.2-1.4,4.3-2c1.1-0.6,2-0.9,2.7-0.9
			c0.3,0,0.6,0,0.8,0.1c0.2,0.1,0.4,0.3,0.5,0.6c0.1,0.3,0.2,0.6,0.3,1.1C576.3,909.6,576.4,910.2,576.4,911z"/>
		<path class="st2" d="M661.2,918.4c0,0.3-0.1,0.5-0.2,0.7c-0.2,0.2-0.5,0.4-1,0.5c-0.5,0.1-1.1,0.2-1.9,0.3
			c-0.8,0.1-1.8,0.1-3.1,0.1c-1.6,0-3,0-4-0.1c-1-0.1-1.8-0.3-2.3-0.5c-0.5-0.3-0.9-0.5-1.3-0.9l-33.6-31v31c0,0.2-0.1,0.4-0.3,0.6
			c-0.2,0.2-0.5,0.4-1,0.5c-0.5,0.1-1.1,0.2-1.9,0.3c-0.8,0.1-1.8,0.1-2.9,0.1c-1.1,0-2.1,0-2.9-0.1c-0.8-0.1-1.4-0.2-1.9-0.3
			c-0.5-0.1-0.8-0.3-1-0.5c-0.2-0.2-0.3-0.4-0.3-0.6V859c0-0.3,0.1-0.5,0.3-0.7c0.2-0.2,0.5-0.3,1-0.5c0.5-0.1,1.1-0.2,1.9-0.3
			c0.8-0.1,1.8-0.1,2.9-0.1c1.2,0,2.2,0,2.9,0.1c0.8,0.1,1.4,0.2,1.9,0.3c0.5,0.1,0.8,0.3,1,0.5c0.2,0.2,0.3,0.4,0.3,0.7v27.5
			L646,859c0.3-0.3,0.6-0.5,1-0.7c0.4-0.2,0.8-0.3,1.4-0.5c0.5-0.1,1.2-0.2,2-0.3c0.8-0.1,1.8-0.1,3-0.1s2.2,0,3,0.1
			c0.8,0.1,1.4,0.2,1.8,0.3c0.4,0.1,0.8,0.3,0.9,0.5c0.2,0.2,0.2,0.4,0.2,0.6c0,0.4-0.2,0.8-0.5,1.2c-0.3,0.4-0.9,1-1.7,1.7
			l-30.3,24.6l32.6,29.4c0.8,0.8,1.3,1.4,1.4,1.7C661.1,917.9,661.2,918.2,661.2,918.4z"/>
		<path class="st2" d="M794.5,916.8c0.3,0.7,0.5,1.3,0.6,1.7c0,0.4-0.1,0.8-0.5,1c-0.3,0.2-0.9,0.4-1.7,0.4
			c-0.8,0.1-1.9,0.1-3.2,0.1s-2.4,0-3.2-0.1c-0.8,0-1.4-0.1-1.8-0.2c-0.4-0.1-0.7-0.3-0.9-0.5c-0.2-0.2-0.4-0.4-0.6-0.7l-7.2-15.1
			h-35.1l-6.9,14.9c-0.1,0.3-0.3,0.5-0.5,0.7c-0.2,0.2-0.5,0.4-0.9,0.5c-0.4,0.1-1,0.2-1.8,0.3c-0.8,0.1-1.8,0.1-3,0.1
			c-1.3,0-2.3,0-3.1-0.1c-0.8-0.1-1.4-0.2-1.7-0.5c-0.3-0.2-0.5-0.6-0.5-1c0-0.4,0.2-1,0.6-1.7l28.3-57.6c0.2-0.4,0.4-0.6,0.7-0.9
			c0.3-0.2,0.7-0.4,1.2-0.5c0.5-0.1,1.2-0.2,2.1-0.3c0.8,0,1.9-0.1,3.2-0.1c1.4,0,2.5,0,3.5,0.1c0.9,0,1.7,0.1,2.2,0.3
			c0.6,0.1,1,0.3,1.3,0.6c0.3,0.2,0.5,0.5,0.7,0.9L794.5,916.8z M758.1,866L758.1,866l-14.6,30.9h29.4L758.1,866z"/>
		<path class="st2" d="M867.7,916.3c0,0.6,0,1.1-0.1,1.5c-0.1,0.4-0.2,0.8-0.5,1.1c-0.2,0.3-0.5,0.5-0.8,0.6c-0.3,0.1-0.6,0.2-1,0.2
			h-42c-1,0-2-0.2-2.9-0.7c-0.9-0.5-1.4-1.4-1.4-2.6v-55.3c0-1.2,0.5-2.1,1.4-2.6c0.9-0.5,1.9-0.7,2.9-0.7h41.5c0.4,0,0.7,0.1,1,0.2
			c0.3,0.1,0.5,0.3,0.7,0.6c0.2,0.3,0.3,0.6,0.4,1.1c0.1,0.4,0.2,1,0.2,1.6c0,0.6-0.1,1.1-0.2,1.5c-0.1,0.4-0.3,0.8-0.4,1.1
			c-0.2,0.3-0.4,0.5-0.7,0.6c-0.3,0.1-0.6,0.2-1,0.2h-34.2V884H860c0.4,0,0.7,0.1,1,0.2c0.3,0.1,0.5,0.3,0.7,0.6
			c0.2,0.3,0.3,0.6,0.4,1.1c0.1,0.4,0.1,1,0.1,1.6c0,0.6,0,1.1-0.1,1.5c-0.1,0.4-0.2,0.7-0.4,1c-0.2,0.3-0.5,0.4-0.7,0.6
			c-0.3,0.1-0.6,0.2-1,0.2h-29.4v22.2h34.7c0.4,0,0.7,0.1,1,0.2c0.3,0.1,0.6,0.3,0.8,0.6c0.2,0.3,0.4,0.6,0.5,1.1
			C867.7,915.2,867.7,915.7,867.7,916.3z"/>
		<path class="st2" d="M953.7,918.5c0,0.3-0.1,0.5-0.2,0.7c-0.1,0.2-0.4,0.4-0.8,0.5c-0.4,0.1-1,0.2-1.8,0.3
			c-0.8,0.1-1.8,0.1-3.1,0.1c-1.1,0-2,0-2.7-0.1c-0.7-0.1-1.3-0.2-1.7-0.3c-0.4-0.1-0.8-0.3-1-0.6c-0.2-0.3-0.4-0.6-0.6-1l-7.7-14.6
			c-0.9-1.7-1.8-3.2-2.8-4.6c-1-1.4-2.1-2.6-3.5-3.6c-1.3-1-2.9-1.8-4.7-2.3c-1.8-0.6-4-0.8-6.5-0.8H909v26.4c0,0.3-0.1,0.5-0.3,0.7
			c-0.2,0.2-0.5,0.3-0.9,0.5c-0.4,0.1-1,0.2-1.7,0.3c-0.7,0.1-1.6,0.1-2.7,0.1c-1.1,0-2,0-2.7-0.1c-0.7-0.1-1.3-0.2-1.7-0.3
			c-0.4-0.1-0.7-0.3-0.9-0.5c-0.2-0.2-0.3-0.4-0.3-0.7v-57.4c0-1.2,0.4-2.1,1.3-2.6c0.9-0.5,1.8-0.7,2.8-0.7h17.8
			c2.1,0,3.9,0,5.3,0.1c1.4,0.1,2.7,0.2,3.8,0.3c3.2,0.4,6.1,1.1,8.6,2c2.5,0.9,4.6,2,6.2,3.4c1.7,1.4,2.9,2.9,3.8,4.7
			c0.8,1.8,1.3,3.7,1.3,5.9c0,2.1-0.4,3.9-1.1,5.6c-0.8,1.6-1.8,3.1-3.3,4.4c-1.4,1.3-3.1,2.4-5.1,3.3c-2,0.9-4.2,1.7-6.7,2.3
			c1.4,0.4,2.6,1,3.8,1.7c1.1,0.7,2.2,1.5,3.1,2.5c1,1,1.9,2.1,2.7,3.3c0.9,1.2,1.7,2.7,2.6,4.2l7.5,13.6c0.6,1.1,1,2,1.2,2.4
			C953.6,917.9,953.7,918.2,953.7,918.5z M937,875c0-2.4-0.7-4.5-2.2-6.2c-1.5-1.7-3.9-2.9-7.4-3.6c-1.1-0.2-2.3-0.4-3.7-0.5
			c-1.4-0.1-3.1-0.1-5.3-0.1H909v20.9h10.9c2.9,0,5.5-0.3,7.6-0.8c2.1-0.5,3.9-1.3,5.3-2.2c1.4-0.9,2.5-2.1,3.1-3.3
			C936.6,877.8,937,876.5,937,875z"/>
		<path class="st2" d="M992.6,918.5c0,0.3-0.1,0.5-0.3,0.7c-0.2,0.2-0.6,0.3-1.1,0.5c-0.5,0.1-1.2,0.2-2,0.3
			c-0.8,0.1-1.9,0.1-3.2,0.1c-1.2,0-2.3,0-3.1-0.1c-0.9-0.1-1.5-0.2-2.1-0.3c-0.5-0.1-0.9-0.3-1.1-0.5c-0.2-0.2-0.3-0.4-0.3-0.7V859
			c0-0.3,0.1-0.5,0.3-0.7c0.2-0.2,0.6-0.3,1.1-0.5c0.5-0.1,1.2-0.2,2.1-0.3c0.8-0.1,1.8-0.1,3-0.1c1.3,0,2.3,0,3.2,0.1
			c0.8,0.1,1.5,0.2,2,0.3c0.5,0.1,0.9,0.3,1.1,0.5c0.2,0.2,0.3,0.4,0.3,0.7V918.5z"/>
		<path class="st2" d="M1090,916.8c0.3,0.7,0.5,1.3,0.6,1.7c0,0.4-0.1,0.8-0.5,1c-0.3,0.2-0.9,0.4-1.7,0.4c-0.8,0.1-1.9,0.1-3.2,0.1
			c-1.3,0-2.4,0-3.2-0.1c-0.8,0-1.4-0.1-1.8-0.2c-0.4-0.1-0.7-0.3-0.9-0.5c-0.2-0.2-0.4-0.4-0.6-0.7l-7.2-15.1h-35.1l-6.9,14.9
			c-0.1,0.3-0.3,0.5-0.5,0.7c-0.2,0.2-0.5,0.4-0.9,0.5c-0.4,0.1-1,0.2-1.8,0.3c-0.8,0.1-1.8,0.1-3,0.1c-1.3,0-2.3,0-3.1-0.1
			c-0.8-0.1-1.4-0.2-1.7-0.5c-0.3-0.2-0.5-0.6-0.5-1c0-0.4,0.2-1,0.6-1.7l28.3-57.6c0.2-0.4,0.4-0.6,0.7-0.9
			c0.3-0.2,0.7-0.4,1.2-0.5c0.5-0.1,1.2-0.2,2.1-0.3c0.8,0,1.9-0.1,3.2-0.1c1.4,0,2.5,0,3.5,0.1c0.9,0,1.7,0.1,2.2,0.3
			c0.6,0.1,1,0.3,1.3,0.6c0.3,0.2,0.5,0.5,0.7,0.9L1090,916.8z M1053.6,866L1053.6,866l-14.6,30.9h29.4L1053.6,866z"/>
		<path class="st2" d="M1161.7,916.1c0,0.6,0,1.2-0.1,1.6c-0.1,0.4-0.3,0.8-0.5,1.1c-0.2,0.3-0.5,0.5-0.8,0.7
			c-0.3,0.1-0.7,0.2-1.1,0.2h-41.4c-1.1,0-2.2-0.2-3.2-0.7c-1-0.5-1.5-1.4-1.5-2.6V859c0-0.3,0.1-0.5,0.3-0.7c0.2-0.2,0.5-0.3,1-0.5
			c0.5-0.1,1.1-0.2,2-0.3c0.8-0.1,1.8-0.1,3-0.1c1.2,0,2.2,0,3,0.1c0.8,0.1,1.4,0.2,1.9,0.3c0.5,0.1,0.8,0.3,1,0.5
			c0.2,0.2,0.3,0.4,0.3,0.7v53.6h33.6c0.4,0,0.8,0.1,1.1,0.2c0.3,0.1,0.6,0.4,0.8,0.6c0.2,0.3,0.4,0.6,0.5,1.1
			C1161.6,915,1161.7,915.5,1161.7,916.1z"/>
		<path class="st2" d="M1242.4,902.3c0,2.9-0.8,5.5-2.5,7.8c-1.7,2.3-4.1,4.2-7.1,5.8s-6.6,2.8-10.6,3.6c-4.1,0.8-8.5,1.2-13.2,1.2
			c-3.3,0-6.3-0.2-9.2-0.5c-2.8-0.4-5.3-0.8-7.5-1.3c-2.2-0.5-4.1-1-5.6-1.6c-1.5-0.5-2.5-1-3.1-1.4c-0.6-0.4-1-0.9-1.3-1.5
			c-0.3-0.6-0.4-1.4-0.4-2.4c0-0.7,0-1.3,0.2-1.7c0.1-0.5,0.3-0.8,0.5-1.1c0.2-0.3,0.5-0.5,0.8-0.6c0.3-0.1,0.7-0.2,1.1-0.2
			c0.7,0,1.7,0.3,3,0.8c1.3,0.5,3,1.1,5,1.8c2,0.6,4.5,1.2,7.3,1.8c2.9,0.6,6.2,0.8,9.9,0.8c2.8,0,5.4-0.2,7.8-0.7
			c2.4-0.5,4.4-1.2,6.1-2c1.7-0.9,3-2,3.9-3.2c0.9-1.3,1.4-2.7,1.4-4.4c0-1.8-0.6-3.3-1.9-4.5c-1.3-1.2-2.9-2.3-5-3.3
			c-2.1-0.9-4.4-1.8-7.1-2.6c-2.7-0.8-5.4-1.6-8.2-2.4c-2.8-0.8-5.5-1.7-8.1-2.7c-2.6-1-5-2.2-7.1-3.5c-2.1-1.3-3.8-2.9-5.1-4.7
			c-1.3-1.8-1.9-4-1.9-6.5c0-2.6,0.7-4.9,2.2-6.9c1.5-2,3.6-3.7,6.2-5.1c2.7-1.4,5.8-2.4,9.5-3.1c3.7-0.7,7.6-1.1,11.9-1.1
			c2.2,0,4.4,0.1,6.6,0.4c2.2,0.2,4.3,0.6,6.2,1c2,0.4,3.7,0.8,5.2,1.3c1.5,0.5,2.5,0.9,3,1.2c0.5,0.3,0.8,0.5,0.9,0.7
			c0.2,0.2,0.3,0.4,0.4,0.7c0.1,0.3,0.2,0.6,0.2,1c0,0.4,0.1,0.9,0.1,1.5c0,0.6,0,1.1-0.1,1.5c-0.1,0.4-0.2,0.8-0.3,1.1
			c-0.2,0.3-0.4,0.5-0.6,0.7s-0.6,0.2-0.9,0.2c-0.6,0-1.4-0.2-2.6-0.7c-1.2-0.4-2.6-0.9-4.4-1.5c-1.7-0.6-3.8-1.1-6.1-1.5
			c-2.4-0.5-5-0.7-7.9-0.7c-2.7,0-5.1,0.2-7.1,0.7c-2,0.5-3.7,1.1-5,1.8c-1.3,0.8-2.3,1.7-3,2.7c-0.7,1.1-1,2.2-1,3.4
			c0,1.7,0.6,3.2,1.9,4.5c1.3,1.2,3,2.3,5.1,3.3c2.1,1,4.5,1.8,7.2,2.6c2.7,0.8,5.4,1.6,8.2,2.4c2.8,0.8,5.5,1.7,8.2,2.7
			c2.7,1,5.1,2.1,7.2,3.4c2.1,1.3,3.8,2.9,5.1,4.7C1241.7,897.8,1242.4,899.9,1242.4,902.3z"/>
	</g>
	<g>
		<g>
			<path class="st2" d="M177,975.3c0,0.3,0,0.6-0.1,0.8c0,0.2-0.1,0.4-0.2,0.6c-0.1,0.1-0.2,0.2-0.4,0.3c-0.2,0.1-0.3,0.1-0.5,0.1
				h-16.5v11.1h15.6c0.2,0,0.3,0,0.5,0.1c0.2,0.1,0.3,0.2,0.4,0.3c0.1,0.1,0.2,0.3,0.2,0.5c0,0.2,0.1,0.5,0.1,0.9
				c0,0.3,0,0.6-0.1,0.8c0,0.2-0.1,0.4-0.2,0.6c-0.1,0.1-0.2,0.3-0.4,0.3c-0.2,0.1-0.3,0.1-0.5,0.1h-15.6v13.6c0,0.1,0,0.2-0.1,0.3
				c-0.1,0.1-0.3,0.2-0.5,0.3c-0.2,0.1-0.5,0.1-0.9,0.2c-0.4,0-0.9,0.1-1.5,0.1c-0.6,0-1,0-1.4-0.1c-0.4,0-0.7-0.1-0.9-0.2
				c-0.2-0.1-0.4-0.1-0.5-0.3c-0.1-0.1-0.1-0.2-0.1-0.3v-30.3c0-0.7,0.2-1.1,0.7-1.4c0.5-0.3,1-0.4,1.5-0.4h20.2
				c0.2,0,0.3,0,0.5,0.1c0.2,0.1,0.3,0.2,0.4,0.3c0.1,0.2,0.2,0.3,0.2,0.6C177,974.7,177,975,177,975.3z"/>
		</g>
		<g>
			<path class="st2" d="M214.5,1004.2c0,0.3,0,0.6-0.1,0.8c0,0.2-0.1,0.4-0.2,0.6c-0.1,0.2-0.2,0.3-0.4,0.4
				c-0.2,0.1-0.3,0.1-0.5,0.1h-19.9c-0.5,0-1-0.1-1.5-0.4c-0.5-0.3-0.7-0.7-0.7-1.4v-30.3c0-0.1,0-0.3,0.1-0.4
				c0.1-0.1,0.3-0.2,0.5-0.2c0.2-0.1,0.5-0.1,0.9-0.2c0.4,0,0.9-0.1,1.4-0.1c0.6,0,1.1,0,1.4,0.1c0.4,0,0.7,0.1,0.9,0.2
				c0.2,0.1,0.4,0.1,0.5,0.2c0.1,0.1,0.1,0.2,0.1,0.4v28.3h16.1c0.2,0,0.4,0,0.5,0.1c0.2,0.1,0.3,0.2,0.4,0.3
				c0.1,0.1,0.2,0.3,0.2,0.6C214.5,1003.6,214.5,1003.9,214.5,1004.2z"/>
		</g>
		<g>
			<path class="st2" d="M262.4,989.4c0,2.6-0.4,5-1.3,7.2c-0.9,2.1-2.1,3.9-3.8,5.4c-1.7,1.5-3.8,2.6-6.4,3.4s-5.6,1.2-9,1.2
				c-3.4,0-6.3-0.4-8.8-1.1c-2.5-0.7-4.5-1.8-6.1-3.2c-1.6-1.4-2.8-3.1-3.6-5.2c-0.8-2.1-1.2-4.5-1.2-7.2c0-2.6,0.4-4.9,1.3-7
				c0.9-2.1,2.1-3.9,3.9-5.4c1.7-1.5,3.9-2.6,6.4-3.4c2.6-0.8,5.6-1.2,9-1.2c3.3,0,6.2,0.4,8.7,1.1c2.5,0.7,4.5,1.8,6.1,3.2
				c1.6,1.4,2.9,3.1,3.7,5.2C262,984.4,262.4,986.8,262.4,989.4z M256.1,989.7c0-1.9-0.2-3.6-0.7-5.2c-0.5-1.6-1.2-3-2.3-4.1
				c-1.1-1.2-2.5-2.1-4.2-2.7c-1.8-0.7-3.9-1-6.5-1c-2.6,0-4.8,0.4-6.5,1.1c-1.8,0.7-3.2,1.7-4.3,2.8c-1.1,1.2-1.9,2.6-2.4,4.1
				c-0.5,1.6-0.7,3.2-0.7,5c0,1.9,0.2,3.7,0.7,5.3c0.4,1.6,1.2,3,2.2,4.2c1,1.2,2.4,2.1,4.2,2.7c1.7,0.6,3.9,1,6.6,1
				c2.6,0,4.8-0.4,6.6-1.1s3.2-1.7,4.3-2.9c1.1-1.2,1.9-2.6,2.3-4.2C255.8,993.1,256.1,991.5,256.1,989.7z"/>
		</g>
		<g>
			<path class="st2" d="M319.3,1005.2c-0.1,0.2-0.2,0.4-0.4,0.6c-0.2,0.1-0.4,0.3-0.8,0.3c-0.3,0.1-0.7,0.1-1.2,0.2
				c-0.5,0-1.1,0.1-1.8,0.1c-0.7,0-1.3,0-1.8-0.1c-0.5,0-0.9-0.1-1.2-0.2c-0.3-0.1-0.6-0.2-0.7-0.3c-0.2-0.1-0.3-0.3-0.4-0.6
				l-9.4-24.7h-0.1l-8.7,24.7c-0.1,0.2-0.2,0.4-0.3,0.6c-0.2,0.1-0.4,0.3-0.7,0.3c-0.3,0.1-0.7,0.1-1.2,0.2c-0.5,0-1.1,0.1-1.8,0.1
				c-0.8,0-1.4,0-1.9-0.1c-0.5,0-0.9-0.1-1.3-0.2c-0.3-0.1-0.6-0.2-0.7-0.3c-0.2-0.1-0.3-0.3-0.4-0.6L272.6,975
				c-0.1-0.4-0.2-0.7-0.2-0.9c0-0.2,0.1-0.4,0.3-0.5c0.2-0.1,0.5-0.2,1-0.2c0.4,0,1-0.1,1.8-0.1c0.7,0,1.3,0,1.7,0
				c0.4,0,0.7,0.1,1,0.1c0.2,0.1,0.4,0.2,0.5,0.3c0.1,0.1,0.1,0.3,0.2,0.5l10.1,27.4h0l9.6-27.4c0.1-0.2,0.2-0.3,0.3-0.5
				c0.1-0.1,0.3-0.2,0.5-0.3c0.2-0.1,0.6-0.1,1-0.2c0.4,0,1-0.1,1.7-0.1c0.6,0,1.2,0,1.5,0.1c0.4,0,0.7,0.1,0.9,0.2
				c0.2,0.1,0.4,0.2,0.5,0.3c0.1,0.1,0.2,0.3,0.3,0.5l10.3,27.4h0.1l9.9-27.4c0.1-0.2,0.1-0.3,0.2-0.4c0.1-0.1,0.2-0.2,0.4-0.3
				c0.2-0.1,0.5-0.1,0.9-0.2c0.4,0,0.9-0.1,1.6-0.1c0.7,0,1.2,0,1.7,0.1c0.4,0,0.7,0.1,0.9,0.2c0.2,0.1,0.3,0.3,0.3,0.5
				c0,0.2-0.1,0.5-0.2,0.9L319.3,1005.2z"/>
		</g>
		<g>
			<path class="st2" d="M378.7,1004.3c0,0.3-0.1,0.6-0.2,0.9c-0.2,0.2-0.4,0.4-0.6,0.6c-0.3,0.2-0.5,0.3-0.8,0.3
				c-0.3,0.1-0.6,0.1-0.9,0.1h-2c-0.6,0-1.2,0-1.6-0.1c-0.5-0.1-0.9-0.3-1.3-0.5c-0.4-0.2-0.8-0.6-1.3-1c-0.4-0.4-0.9-1-1.3-1.6
				l-13.7-18.6c-0.7-1-1.4-2-2.2-3c-0.7-1.1-1.4-2.1-2-3.1h-0.1c0,1.2,0.1,2.5,0.1,3.7c0,1.3,0,2.5,0,3.8v19.7c0,0.1,0,0.2-0.1,0.3
				c-0.1,0.1-0.3,0.2-0.5,0.3c-0.2,0.1-0.5,0.1-0.9,0.2c-0.4,0-0.9,0.1-1.4,0.1c-0.6,0-1.1,0-1.4-0.1c-0.4,0-0.7-0.1-0.9-0.2
				c-0.2-0.1-0.4-0.1-0.5-0.3c-0.1-0.1-0.1-0.2-0.1-0.3v-30.2c0-0.7,0.3-1.2,0.8-1.4c0.5-0.3,1.1-0.4,1.7-0.4h2.9
				c0.7,0,1.3,0,1.7,0.1c0.5,0.1,0.9,0.2,1.3,0.4c0.4,0.2,0.7,0.5,1.1,0.8s0.7,0.8,1.1,1.3l10.6,14.4c0.6,0.9,1.3,1.7,1.9,2.6
				c0.6,0.8,1.2,1.7,1.7,2.5c0.6,0.8,1.1,1.6,1.7,2.4c0.5,0.8,1.1,1.6,1.6,2.4h0c0-1.3-0.1-2.7-0.1-4.2c0-1.4,0-2.8,0-4.2v-17.8
				c0-0.1,0-0.2,0.1-0.3c0.1-0.1,0.3-0.2,0.5-0.3c0.2-0.1,0.5-0.1,0.9-0.2c0.4,0,0.9-0.1,1.5-0.1c0.5,0,1,0,1.4,0.1
				c0.4,0,0.7,0.1,0.9,0.2c0.2,0.1,0.4,0.2,0.5,0.3c0.1,0.1,0.1,0.2,0.1,0.3V1004.3z"/>
		</g>
		<g>
			<path class="st2" d="M447,1005.5c0,0.1,0,0.3-0.1,0.4c-0.1,0.1-0.2,0.2-0.5,0.3c-0.2,0.1-0.6,0.1-1,0.2c-0.4,0-1,0.1-1.7,0.1
				c-0.6,0-1.1,0-1.5-0.1c-0.4,0-0.7-0.1-0.9-0.2c-0.2-0.1-0.4-0.2-0.5-0.3c-0.1-0.1-0.2-0.3-0.3-0.5l-4.1-7.7
				c-0.5-0.9-1-1.7-1.5-2.4c-0.5-0.7-1.1-1.4-1.9-1.9c-0.7-0.5-1.6-0.9-2.5-1.2c-1-0.3-2.1-0.4-3.5-0.4h-4v13.9
				c0,0.1-0.1,0.3-0.2,0.4c-0.1,0.1-0.3,0.2-0.5,0.2c-0.2,0.1-0.5,0.1-0.9,0.2c-0.4,0-0.9,0.1-1.4,0.1c-0.6,0-1.1,0-1.4-0.1
				c-0.4,0-0.7-0.1-0.9-0.2c-0.2-0.1-0.4-0.1-0.5-0.2c-0.1-0.1-0.1-0.2-0.1-0.4v-30.3c0-0.7,0.2-1.1,0.7-1.4c0.5-0.3,1-0.4,1.5-0.4
				h9.6c1.1,0,2.1,0,2.8,0.1c0.8,0,1.4,0.1,2,0.1c1.7,0.2,3.3,0.6,4.6,1c1.3,0.5,2.5,1.1,3.4,1.8c0.9,0.7,1.6,1.6,2,2.5
				c0.5,0.9,0.7,2,0.7,3.1c0,1.1-0.2,2.1-0.6,2.9c-0.4,0.9-1,1.6-1.8,2.3c-0.8,0.7-1.7,1.2-2.7,1.7c-1.1,0.5-2.3,0.9-3.6,1.2
				c0.7,0.2,1.4,0.5,2,0.9c0.6,0.4,1.2,0.8,1.7,1.3c0.5,0.5,1,1.1,1.5,1.7c0.5,0.7,0.9,1.4,1.4,2.2l4,7.2c0.3,0.6,0.5,1,0.6,1.3
				C447,1005.2,447,1005.3,447,1005.5z M438,982.5c0-1.3-0.4-2.4-1.2-3.2c-0.8-0.9-2.1-1.5-4-1.9c-0.6-0.1-1.2-0.2-2-0.3
				c-0.7-0.1-1.7-0.1-2.9-0.1h-5v11h5.8c1.6,0,2.9-0.1,4.1-0.4c1.1-0.3,2.1-0.7,2.9-1.2c0.8-0.5,1.3-1.1,1.7-1.8
				C437.8,984,438,983.3,438,982.5z"/>
		</g>
		<g>
			<path class="st2" d="M466.8,1005.5c0,0.1,0,0.3-0.1,0.4c-0.1,0.1-0.3,0.2-0.5,0.2c-0.2,0.1-0.5,0.1-0.9,0.2
				c-0.4,0-0.9,0.1-1.4,0.1c-0.6,0-1,0-1.4-0.1c-0.4,0-0.7-0.1-0.9-0.2c-0.2-0.1-0.4-0.1-0.5-0.2c-0.1-0.1-0.1-0.2-0.1-0.4v-31.4
				c0-0.1,0.1-0.3,0.2-0.4c0.1-0.1,0.3-0.2,0.5-0.2c0.2-0.1,0.6-0.1,0.9-0.2c0.4,0,0.8-0.1,1.4-0.1c0.6,0,1.1,0,1.4,0.1
				c0.4,0,0.7,0.1,0.9,0.2c0.2,0.1,0.4,0.1,0.5,0.2c0.1,0.1,0.1,0.2,0.1,0.4V1005.5z"/>
		</g>
		<g>
			<path class="st2" d="M517.7,977.9c0,0.3,0,0.6-0.1,0.8c0,0.2-0.1,0.4-0.2,0.6c-0.1,0.2-0.2,0.3-0.3,0.3c-0.1,0.1-0.3,0.1-0.5,0.1
				c-0.3,0-0.7-0.2-1.4-0.5c-0.6-0.3-1.5-0.7-2.6-1.1c-1.1-0.4-2.4-0.7-3.9-1.1c-1.5-0.3-3.3-0.5-5.4-0.5c-2.5,0-4.7,0.3-6.7,1
				c-2,0.7-3.6,1.6-5,2.7c-1.4,1.2-2.4,2.5-3.1,4.1c-0.7,1.6-1.1,3.3-1.1,5.2c0,2.1,0.4,3.9,1.2,5.6c0.8,1.6,1.9,3,3.3,4.1
				c1.4,1.1,3.1,2,5.1,2.5c2,0.6,4.1,0.9,6.4,0.9c1.4,0,2.8-0.1,4.2-0.4c1.4-0.2,2.8-0.6,4-1.1v-9.5h-10.4c-0.4,0-0.7-0.1-0.9-0.4
				c-0.2-0.3-0.3-0.7-0.3-1.3c0-0.3,0-0.6,0.1-0.8c0-0.2,0.1-0.4,0.2-0.6c0.1-0.1,0.2-0.2,0.4-0.3c0.1-0.1,0.3-0.1,0.5-0.1h14.3
				c0.3,0,0.5,0,0.8,0.1c0.3,0.1,0.5,0.2,0.7,0.3c0.2,0.1,0.4,0.3,0.5,0.6c0.1,0.2,0.2,0.5,0.2,0.8v12.5c0,0.4-0.1,0.8-0.3,1.1
				c-0.2,0.3-0.6,0.6-1.3,0.8c-0.7,0.2-1.5,0.5-2.6,0.8c-1.1,0.3-2.2,0.5-3.3,0.7c-1.1,0.2-2.3,0.4-3.4,0.5
				c-1.2,0.1-2.3,0.2-3.4,0.2c-3.5,0-6.6-0.4-9.3-1.2c-2.7-0.8-5-1.9-6.9-3.4c-1.9-1.4-3.3-3.2-4.3-5.2c-1-2-1.5-4.3-1.5-6.8
				c0-2.6,0.5-4.9,1.6-7.1c1.1-2.1,2.6-3.9,4.6-5.4c2-1.5,4.3-2.6,7.1-3.5c2.7-0.8,5.8-1.2,9.1-1.2c1.7,0,3.3,0.1,4.8,0.3
				c1.5,0.2,2.8,0.5,4,0.8c1.2,0.3,2.2,0.6,3,1s1.3,0.6,1.7,0.8c0.3,0.2,0.5,0.5,0.6,0.8C517.6,976.9,517.7,977.3,517.7,977.9z"/>
		</g>
		<g>
			<path class="st2" d="M566.3,1005.5c0,0.1,0,0.3-0.1,0.4c-0.1,0.1-0.3,0.2-0.5,0.2c-0.2,0.1-0.5,0.1-0.9,0.2
				c-0.4,0-0.9,0.1-1.4,0.1c-0.6,0-1.1,0-1.5-0.1c-0.4,0-0.7-0.1-0.9-0.2c-0.2-0.1-0.4-0.1-0.5-0.2c-0.1-0.1-0.1-0.2-0.1-0.4V991
				h-20.5v14.5c0,0.1,0,0.3-0.1,0.4c-0.1,0.1-0.3,0.2-0.5,0.2c-0.2,0.1-0.5,0.1-0.9,0.2c-0.4,0-0.9,0.1-1.4,0.1c-0.6,0-1,0-1.4-0.1
				c-0.4,0-0.7-0.1-0.9-0.2c-0.2-0.1-0.4-0.1-0.5-0.2c-0.1-0.1-0.1-0.2-0.1-0.4v-31.4c0-0.1,0-0.3,0.1-0.4c0.1-0.1,0.3-0.2,0.5-0.2
				c0.2-0.1,0.5-0.1,0.9-0.2c0.4,0,0.9-0.1,1.4-0.1c0.6,0,1.1,0,1.4,0.1c0.4,0,0.7,0.1,0.9,0.2c0.2,0.1,0.4,0.1,0.5,0.2
				c0.1,0.1,0.1,0.2,0.1,0.4v13.1h20.5v-13.1c0-0.1,0-0.3,0.1-0.4c0.1-0.1,0.3-0.2,0.5-0.2c0.2-0.1,0.5-0.1,0.9-0.2
				c0.4,0,0.9-0.1,1.5-0.1c0.6,0,1,0,1.4,0.1c0.4,0,0.7,0.1,0.9,0.2c0.2,0.1,0.4,0.1,0.5,0.2c0.1,0.1,0.1,0.2,0.1,0.4V1005.5z"/>
		</g>
		<g>
			<path class="st2" d="M611.6,975.3c0,0.3,0,0.6-0.1,0.8c0,0.2-0.1,0.4-0.2,0.6c-0.1,0.1-0.2,0.2-0.4,0.3c-0.2,0.1-0.3,0.1-0.5,0.1
				h-12.7v28.4c0,0.1,0,0.3-0.1,0.4c-0.1,0.1-0.3,0.2-0.5,0.2c-0.2,0.1-0.5,0.1-0.9,0.2c-0.4,0-0.9,0.1-1.4,0.1c-0.6,0-1,0-1.4-0.1
				c-0.4,0-0.7-0.1-0.9-0.2c-0.2-0.1-0.4-0.1-0.5-0.2c-0.1-0.1-0.1-0.2-0.1-0.4v-28.4h-12.7c-0.2,0-0.4,0-0.5-0.1
				c-0.2-0.1-0.3-0.2-0.4-0.3c-0.1-0.1-0.2-0.3-0.2-0.6c-0.1-0.2-0.1-0.5-0.1-0.8c0-0.3,0-0.6,0.1-0.8c0.1-0.2,0.1-0.4,0.2-0.6
				c0.1-0.2,0.2-0.3,0.4-0.3c0.2-0.1,0.3-0.1,0.5-0.1h31.3c0.2,0,0.4,0,0.5,0.1c0.2,0.1,0.3,0.2,0.4,0.3c0.1,0.2,0.2,0.3,0.2,0.6
				C611.6,974.7,611.6,975,611.6,975.3z"/>
		</g>
		<g>
			<path class="st2" d="M622.9,1002.5c0,0.5,0,1-0.1,1.4c-0.1,0.4-0.2,0.9-0.3,1.2c-0.2,0.4-0.4,0.8-0.6,1.2c-0.3,0.4-0.6,0.8-1,1.2
				l-4.8,5.2c-0.1,0.1-0.2,0.2-0.4,0.3c-0.2,0.1-0.3,0.2-0.6,0.2c-0.2,0.1-0.5,0.1-0.8,0.1c-0.3,0-0.7,0-1.1,0c-0.4,0-0.7,0-1,0
				c-0.3,0-0.5-0.1-0.6-0.1c-0.1-0.1-0.2-0.1-0.2-0.2c0-0.1,0-0.2,0.1-0.4l4.6-7v-3.2c0-0.5,0.1-0.8,0.2-1.1
				c0.1-0.3,0.3-0.5,0.6-0.6c0.3-0.1,0.6-0.2,1-0.3c0.4,0,0.9-0.1,1.5-0.1c0.6,0,1.1,0,1.5,0.1c0.4,0.1,0.8,0.1,1,0.3
				c0.3,0.1,0.5,0.3,0.6,0.6C622.8,1001.7,622.9,1002.1,622.9,1002.5z"/>
		</g>
		<g>
			<path class="st2" d="M688.3,975.3c0,0.3,0,0.6-0.1,0.8c0,0.2-0.1,0.4-0.2,0.6c-0.1,0.1-0.2,0.2-0.4,0.3c-0.2,0.1-0.3,0.1-0.5,0.1
				h-12.7v28.4c0,0.1,0,0.3-0.1,0.4c-0.1,0.1-0.3,0.2-0.5,0.2c-0.2,0.1-0.5,0.1-0.9,0.2c-0.4,0-0.9,0.1-1.4,0.1c-0.6,0-1,0-1.4-0.1
				c-0.4,0-0.7-0.1-0.9-0.2c-0.2-0.1-0.4-0.1-0.5-0.2c-0.1-0.1-0.1-0.2-0.1-0.4v-28.4h-12.7c-0.2,0-0.4,0-0.5-0.1
				c-0.2-0.1-0.3-0.2-0.4-0.3c-0.1-0.1-0.2-0.3-0.2-0.6c-0.1-0.2-0.1-0.5-0.1-0.8c0-0.3,0-0.6,0.1-0.8c0.1-0.2,0.1-0.4,0.2-0.6
				c0.1-0.2,0.2-0.3,0.4-0.3c0.2-0.1,0.3-0.1,0.5-0.1h31.3c0.2,0,0.4,0,0.5,0.1c0.2,0.1,0.3,0.2,0.4,0.3c0.1,0.2,0.2,0.3,0.2,0.6
				C688.2,974.7,688.3,975,688.3,975.3z"/>
		</g>
		<g>
			<path class="st2" d="M732.3,1005.5c0,0.1,0,0.3-0.1,0.4c-0.1,0.1-0.3,0.2-0.5,0.2c-0.2,0.1-0.5,0.1-0.9,0.2
				c-0.4,0-0.9,0.1-1.4,0.1c-0.6,0-1.1,0-1.5-0.1c-0.4,0-0.7-0.1-0.9-0.2c-0.2-0.1-0.4-0.1-0.5-0.2c-0.1-0.1-0.1-0.2-0.1-0.4V991
				h-20.5v14.5c0,0.1,0,0.3-0.1,0.4c-0.1,0.1-0.3,0.2-0.5,0.2c-0.2,0.1-0.5,0.1-0.9,0.2c-0.4,0-0.9,0.1-1.4,0.1c-0.6,0-1,0-1.4-0.1
				c-0.4,0-0.7-0.1-0.9-0.2c-0.2-0.1-0.4-0.1-0.5-0.2c-0.1-0.1-0.1-0.2-0.1-0.4v-31.4c0-0.1,0-0.3,0.1-0.4c0.1-0.1,0.3-0.2,0.5-0.2
				c0.2-0.1,0.5-0.1,0.9-0.2c0.4,0,0.9-0.1,1.4-0.1c0.6,0,1.1,0,1.4,0.1c0.4,0,0.7,0.1,0.9,0.2c0.2,0.1,0.4,0.1,0.5,0.2
				c0.1,0.1,0.1,0.2,0.1,0.4v13.1h20.5v-13.1c0-0.1,0-0.3,0.1-0.4c0.1-0.1,0.3-0.2,0.5-0.2c0.2-0.1,0.5-0.1,0.9-0.2
				c0.4,0,0.9-0.1,1.5-0.1c0.6,0,1,0,1.4,0.1c0.4,0,0.7,0.1,0.9,0.2c0.2,0.1,0.4,0.1,0.5,0.2c0.1,0.1,0.1,0.2,0.1,0.4V1005.5z"/>
		</g>
		<g>
			<path class="st2" d="M774.4,1004.3c0,0.3,0,0.6-0.1,0.8c0,0.2-0.1,0.4-0.2,0.6c-0.1,0.2-0.2,0.3-0.4,0.3
				c-0.2,0.1-0.3,0.1-0.5,0.1h-21.6c-0.5,0-1-0.1-1.5-0.4c-0.5-0.3-0.7-0.7-0.7-1.4v-29.2c0-0.7,0.2-1.1,0.7-1.4
				c0.5-0.3,1-0.4,1.5-0.4H773c0.2,0,0.4,0,0.5,0.1c0.1,0.1,0.3,0.2,0.4,0.3c0.1,0.2,0.2,0.3,0.2,0.6c0.1,0.2,0.1,0.5,0.1,0.8
				c0,0.3,0,0.6-0.1,0.8c-0.1,0.2-0.1,0.4-0.2,0.6c-0.1,0.1-0.2,0.2-0.4,0.3c-0.2,0.1-0.3,0.1-0.5,0.1h-17.6v10.3h15.1
				c0.2,0,0.4,0,0.5,0.1c0.2,0.1,0.3,0.2,0.4,0.3c0.1,0.1,0.2,0.3,0.2,0.6c0,0.2,0.1,0.5,0.1,0.8c0,0.3,0,0.6-0.1,0.8
				c0,0.2-0.1,0.4-0.2,0.5c-0.1,0.1-0.2,0.2-0.4,0.3c-0.2,0.1-0.3,0.1-0.5,0.1h-15.1v11.7h17.8c0.2,0,0.4,0,0.5,0.1
				c0.2,0.1,0.3,0.2,0.4,0.3c0.1,0.1,0.2,0.3,0.2,0.6C774.4,1003.7,774.4,1004,774.4,1004.3z"/>
		</g>
		<g>
			<path class="st2" d="M834.2,975.3c0,0.3,0,0.6-0.1,0.8c0,0.2-0.1,0.4-0.2,0.6c-0.1,0.1-0.2,0.2-0.4,0.3c-0.2,0.1-0.3,0.1-0.5,0.1
				h-16.5v11.1h15.6c0.2,0,0.3,0,0.5,0.1c0.2,0.1,0.3,0.2,0.4,0.3c0.1,0.1,0.2,0.3,0.2,0.5c0,0.2,0.1,0.5,0.1,0.9
				c0,0.3,0,0.6-0.1,0.8c0,0.2-0.1,0.4-0.2,0.6c-0.1,0.1-0.2,0.3-0.4,0.3c-0.2,0.1-0.3,0.1-0.5,0.1h-15.6v13.6c0,0.1,0,0.2-0.1,0.3
				c-0.1,0.1-0.3,0.2-0.5,0.3c-0.2,0.1-0.5,0.1-0.9,0.2c-0.4,0-0.9,0.1-1.5,0.1c-0.6,0-1,0-1.4-0.1c-0.4,0-0.7-0.1-0.9-0.2
				c-0.2-0.1-0.4-0.1-0.5-0.3c-0.1-0.1-0.1-0.2-0.1-0.3v-30.3c0-0.7,0.2-1.1,0.7-1.4c0.5-0.3,1-0.4,1.5-0.4H833c0.2,0,0.3,0,0.5,0.1
				c0.1,0.1,0.3,0.2,0.4,0.3c0.1,0.2,0.2,0.3,0.2,0.6C834.1,974.7,834.2,975,834.2,975.3z"/>
		</g>
		<g>
			<path class="st2" d="M854.3,1005.5c0,0.1,0,0.3-0.1,0.4c-0.1,0.1-0.3,0.2-0.5,0.2c-0.2,0.1-0.5,0.1-0.9,0.2
				c-0.4,0-0.9,0.1-1.4,0.1c-0.6,0-1,0-1.4-0.1c-0.4,0-0.7-0.1-0.9-0.2c-0.2-0.1-0.4-0.1-0.5-0.2c-0.1-0.1-0.1-0.2-0.1-0.4v-31.4
				c0-0.1,0.1-0.3,0.2-0.4c0.1-0.1,0.3-0.2,0.5-0.2c0.2-0.1,0.6-0.1,0.9-0.2c0.4,0,0.8-0.1,1.4-0.1c0.6,0,1.1,0,1.4,0.1
				c0.4,0,0.7,0.1,0.9,0.2c0.2,0.1,0.4,0.1,0.5,0.2c0.1,0.1,0.1,0.2,0.1,0.4V1005.5z"/>
		</g>
		<g>
			<path class="st2" d="M901.4,1005.5c0,0.1,0,0.3-0.1,0.4c-0.1,0.1-0.2,0.2-0.5,0.3c-0.2,0.1-0.6,0.1-1,0.2s-1,0.1-1.7,0.1
				c-0.6,0-1.1,0-1.5-0.1c-0.4,0-0.7-0.1-0.9-0.2c-0.2-0.1-0.4-0.2-0.5-0.3c-0.1-0.1-0.2-0.3-0.3-0.5l-4.1-7.7
				c-0.5-0.9-1-1.7-1.5-2.4c-0.5-0.7-1.1-1.4-1.9-1.9c-0.7-0.5-1.6-0.9-2.5-1.2c-1-0.3-2.1-0.4-3.5-0.4h-4v13.9
				c0,0.1-0.1,0.3-0.2,0.4c-0.1,0.1-0.3,0.2-0.5,0.2c-0.2,0.1-0.5,0.1-0.9,0.2c-0.4,0-0.9,0.1-1.4,0.1c-0.6,0-1.1,0-1.4-0.1
				c-0.4,0-0.7-0.1-0.9-0.2c-0.2-0.1-0.4-0.1-0.5-0.2c-0.1-0.1-0.1-0.2-0.1-0.4v-30.3c0-0.7,0.2-1.1,0.7-1.4c0.5-0.3,1-0.4,1.5-0.4
				h9.6c1.1,0,2.1,0,2.8,0.1c0.8,0,1.4,0.1,2,0.1c1.7,0.2,3.3,0.6,4.6,1c1.3,0.5,2.5,1.1,3.4,1.8c0.9,0.7,1.6,1.6,2,2.5
				c0.5,0.9,0.7,2,0.7,3.1c0,1.1-0.2,2.1-0.6,2.9c-0.4,0.9-1,1.6-1.8,2.3c-0.8,0.7-1.7,1.2-2.7,1.7c-1.1,0.5-2.3,0.9-3.6,1.2
				c0.7,0.2,1.4,0.5,2,0.9c0.6,0.4,1.2,0.8,1.7,1.3c0.5,0.5,1,1.1,1.5,1.7c0.5,0.7,0.9,1.4,1.4,2.2l4,7.2c0.3,0.6,0.5,1,0.6,1.3
				C901.4,1005.2,901.4,1005.3,901.4,1005.5z M892.4,982.5c0-1.3-0.4-2.4-1.2-3.2s-2.1-1.5-4-1.9c-0.6-0.1-1.2-0.2-2-0.3
				c-0.7-0.1-1.7-0.1-2.9-0.1h-5v11h5.8c1.6,0,2.9-0.1,4.1-0.4c1.1-0.3,2.1-0.7,2.9-1.2c0.8-0.5,1.3-1.1,1.7-1.8
				C892.2,984,892.4,983.3,892.4,982.5z"/>
		</g>
		<g>
			<path class="st2" d="M938.4,997c0,1.5-0.4,2.9-1.2,4.1c-0.8,1.2-1.9,2.2-3.2,3c-1.4,0.8-3,1.5-4.9,1.9c-1.9,0.4-3.9,0.6-6,0.6
				c-1.5,0-2.9-0.1-4.2-0.3c-1.3-0.2-2.4-0.4-3.4-0.7c-1-0.3-1.9-0.5-2.5-0.8c-0.7-0.3-1.2-0.5-1.4-0.7c-0.3-0.2-0.5-0.5-0.6-0.8
				c-0.1-0.3-0.2-0.7-0.2-1.3c0-0.4,0-0.7,0.1-0.9c0-0.2,0.1-0.4,0.2-0.6c0.1-0.2,0.2-0.3,0.3-0.3c0.1-0.1,0.3-0.1,0.5-0.1
				c0.3,0,0.8,0.1,1.4,0.4c0.6,0.3,1.4,0.6,2.3,0.9c0.9,0.3,2,0.7,3.4,0.9c1.3,0.3,2.8,0.4,4.5,0.4c1.3,0,2.5-0.1,3.6-0.4
				c1.1-0.3,2-0.6,2.8-1.1c0.8-0.5,1.4-1,1.8-1.7c0.4-0.7,0.6-1.4,0.6-2.3c0-0.9-0.3-1.7-0.9-2.4c-0.6-0.7-1.3-1.2-2.3-1.7
				c-1-0.5-2-1-3.3-1.4c-1.2-0.4-2.5-0.8-3.7-1.3c-1.3-0.4-2.5-0.9-3.7-1.4c-1.2-0.5-2.3-1.1-3.2-1.8s-1.7-1.5-2.3-2.5
				c-0.6-1-0.9-2.1-0.9-3.4c0-1.4,0.3-2.6,1-3.7c0.7-1.1,1.6-2,2.9-2.7c1.2-0.7,2.7-1.3,4.3-1.7c1.7-0.4,3.5-0.6,5.4-0.6
				c1,0,2,0.1,3,0.2c1,0.1,2,0.3,2.9,0.5c0.9,0.2,1.7,0.4,2.4,0.7s1.2,0.5,1.4,0.6c0.2,0.2,0.4,0.3,0.4,0.4c0.1,0.1,0.1,0.2,0.2,0.4
				c0,0.1,0.1,0.3,0.1,0.5c0,0.2,0,0.5,0,0.8c0,0.3,0,0.6-0.1,0.8c0,0.2-0.1,0.4-0.2,0.6c-0.1,0.2-0.2,0.3-0.3,0.4
				c-0.1,0.1-0.3,0.1-0.4,0.1c-0.3,0-0.7-0.1-1.2-0.4c-0.5-0.2-1.2-0.5-2-0.8c-0.8-0.3-1.7-0.6-2.8-0.8c-1.1-0.2-2.3-0.4-3.6-0.4
				c-1.3,0-2.3,0.1-3.3,0.4c-0.9,0.2-1.7,0.6-2.3,1c-0.6,0.4-1.1,0.9-1.4,1.4c-0.3,0.6-0.5,1.1-0.5,1.8c0,0.9,0.3,1.7,0.9,2.4
				c0.6,0.7,1.4,1.2,2.3,1.7c1,0.5,2.1,1,3.3,1.4c1.2,0.4,2.5,0.8,3.8,1.3c1.3,0.4,2.5,0.9,3.8,1.4c1.2,0.5,2.3,1.1,3.3,1.8
				c1,0.7,1.7,1.5,2.3,2.5C938.1,994.5,938.4,995.7,938.4,997z"/>
		</g>
		<g>
			<path class="st2" d="M979.8,975.3c0,0.3,0,0.6-0.1,0.8c0,0.2-0.1,0.4-0.2,0.6c-0.1,0.1-0.2,0.2-0.4,0.3c-0.2,0.1-0.3,0.1-0.5,0.1
				H966v28.4c0,0.1,0,0.3-0.1,0.4c-0.1,0.1-0.3,0.2-0.5,0.2c-0.2,0.1-0.5,0.1-0.9,0.2c-0.4,0-0.9,0.1-1.4,0.1c-0.6,0-1,0-1.4-0.1
				c-0.4,0-0.7-0.1-0.9-0.2c-0.2-0.1-0.4-0.1-0.5-0.2c-0.1-0.1-0.1-0.2-0.1-0.4v-28.4h-12.7c-0.2,0-0.4,0-0.5-0.1
				c-0.2-0.1-0.3-0.2-0.4-0.3c-0.1-0.1-0.2-0.3-0.2-0.6c-0.1-0.2-0.1-0.5-0.1-0.8c0-0.3,0-0.6,0.1-0.8c0.1-0.2,0.1-0.4,0.2-0.6
				c0.1-0.2,0.2-0.3,0.4-0.3c0.2-0.1,0.3-0.1,0.5-0.1h31.3c0.2,0,0.4,0,0.5,0.1c0.2,0.1,0.3,0.2,0.4,0.3s0.2,0.3,0.2,0.6
				C979.8,974.7,979.8,975,979.8,975.3z"/>
		</g>
		<g>
			<path class="st2" d="M1040.9,975.3c0,0.3,0,0.6-0.1,0.8c0,0.2-0.1,0.4-0.2,0.6c-0.1,0.1-0.2,0.2-0.4,0.3
				c-0.2,0.1-0.3,0.1-0.5,0.1H1027v28.4c0,0.1,0,0.3-0.1,0.4c-0.1,0.1-0.3,0.2-0.5,0.2c-0.2,0.1-0.5,0.1-0.9,0.2
				c-0.4,0-0.9,0.1-1.4,0.1c-0.6,0-1,0-1.4-0.1c-0.4,0-0.7-0.1-0.9-0.2c-0.2-0.1-0.4-0.1-0.5-0.2c-0.1-0.1-0.1-0.2-0.1-0.4v-28.4
				h-12.7c-0.2,0-0.4,0-0.5-0.1c-0.2-0.1-0.3-0.2-0.4-0.3c-0.1-0.1-0.2-0.3-0.2-0.6c-0.1-0.2-0.1-0.5-0.1-0.8c0-0.3,0-0.6,0.1-0.8
				c0.1-0.2,0.1-0.4,0.2-0.6c0.1-0.2,0.2-0.3,0.4-0.3c0.2-0.1,0.3-0.1,0.5-0.1h31.3c0.2,0,0.4,0,0.5,0.1c0.2,0.1,0.3,0.2,0.4,0.3
				s0.2,0.3,0.2,0.6C1040.9,974.7,1040.9,975,1040.9,975.3z"/>
		</g>
		<g>
			<path class="st2" d="M1058.5,1005.5c0,0.1,0,0.3-0.1,0.4c-0.1,0.1-0.3,0.2-0.5,0.2c-0.2,0.1-0.5,0.1-0.9,0.2
				c-0.4,0-0.9,0.1-1.4,0.1c-0.6,0-1,0-1.4-0.1c-0.4,0-0.7-0.1-0.9-0.2c-0.2-0.1-0.4-0.1-0.5-0.2c-0.1-0.1-0.1-0.2-0.1-0.4v-31.4
				c0-0.1,0.1-0.3,0.2-0.4c0.1-0.1,0.3-0.2,0.5-0.2c0.2-0.1,0.6-0.1,0.9-0.2c0.4,0,0.8-0.1,1.4-0.1c0.6,0,1.1,0,1.4,0.1
				c0.4,0,0.7,0.1,0.9,0.2c0.2,0.1,0.4,0.1,0.5,0.2c0.1,0.1,0.1,0.2,0.1,0.4V1005.5z"/>
		</g>
		<g>
			<path class="st2" d="M1124.5,1005.5c0,0.1,0,0.3-0.1,0.4c-0.1,0.1-0.3,0.2-0.5,0.2c-0.2,0.1-0.5,0.1-0.9,0.2
				c-0.4,0-0.9,0.1-1.4,0.1c-0.5,0-1,0-1.4-0.1c-0.4,0-0.7-0.1-0.9-0.2c-0.2-0.1-0.4-0.1-0.5-0.2c-0.1-0.1-0.1-0.2-0.1-0.4V977h-0.1
				l-15.9,28.6c-0.1,0.1-0.2,0.2-0.3,0.3c-0.1,0.1-0.3,0.2-0.6,0.2c-0.2,0.1-0.5,0.1-0.9,0.1c-0.3,0-0.7,0-1.2,0
				c-0.5,0-0.9,0-1.3-0.1c-0.3,0-0.6-0.1-0.9-0.1c-0.2-0.1-0.4-0.1-0.5-0.2c-0.1-0.1-0.2-0.2-0.3-0.3l-15.2-28.6h0v28.5
				c0,0.1,0,0.3-0.1,0.4c-0.1,0.1-0.3,0.2-0.5,0.2c-0.2,0.1-0.5,0.1-0.9,0.2c-0.4,0-0.9,0.1-1.5,0.1c-0.6,0-1.1,0-1.4-0.1
				c-0.4,0-0.7-0.1-0.9-0.2c-0.2-0.1-0.4-0.1-0.5-0.2c-0.1-0.1-0.1-0.2-0.1-0.4v-30.1c0-0.7,0.3-1.2,0.8-1.5
				c0.5-0.3,1.1-0.5,1.7-0.5h3.7c0.8,0,1.4,0.1,2,0.2c0.6,0.1,1.1,0.3,1.5,0.5c0.4,0.2,0.8,0.5,1.1,0.8c0.3,0.3,0.5,0.7,0.7,1.2
				l12.9,23.7h0.2l13.4-23.6c0.3-0.5,0.5-0.9,0.8-1.3c0.3-0.4,0.6-0.6,1-0.8c0.4-0.2,0.8-0.4,1.2-0.5c0.4-0.1,1-0.1,1.6-0.1h3.8
				c0.4,0,0.7,0,1,0.1c0.3,0.1,0.6,0.2,0.8,0.4c0.2,0.2,0.4,0.4,0.5,0.6c0.1,0.2,0.2,0.5,0.2,0.9V1005.5z"/>
		</g>
		<g>
			<path class="st2" d="M1166.6,1004.3c0,0.3,0,0.6-0.1,0.8c0,0.2-0.1,0.4-0.2,0.6c-0.1,0.2-0.2,0.3-0.4,0.3
				c-0.2,0.1-0.3,0.1-0.5,0.1h-21.6c-0.5,0-1-0.1-1.5-0.4c-0.5-0.3-0.7-0.7-0.7-1.4v-29.2c0-0.7,0.2-1.1,0.7-1.4
				c0.5-0.3,1-0.4,1.5-0.4h21.3c0.2,0,0.4,0,0.5,0.1c0.2,0.1,0.3,0.2,0.4,0.3c0.1,0.2,0.2,0.3,0.2,0.6c0.1,0.2,0.1,0.5,0.1,0.8
				c0,0.3,0,0.6-0.1,0.8c-0.1,0.2-0.1,0.4-0.2,0.6c-0.1,0.1-0.2,0.2-0.4,0.3c-0.2,0.1-0.3,0.1-0.5,0.1h-17.6v10.3h15.1
				c0.2,0,0.4,0,0.5,0.1s0.3,0.2,0.4,0.3c0.1,0.1,0.2,0.3,0.2,0.6c0,0.2,0.1,0.5,0.1,0.8c0,0.3,0,0.6-0.1,0.8c0,0.2-0.1,0.4-0.2,0.5
				c-0.1,0.1-0.2,0.2-0.4,0.3c-0.2,0.1-0.3,0.1-0.5,0.1h-15.1v11.7h17.8c0.2,0,0.4,0,0.5,0.1c0.1,0.1,0.3,0.2,0.4,0.3
				c0.1,0.1,0.2,0.3,0.2,0.6C1166.6,1003.7,1166.6,1004,1166.6,1004.3z"/>
		</g>
	</g>
	<g>
		<g>
			<path class="st1" d="M131.5,991.9H81.3c-1.2,0-2.1-1-2.1-2.1s1-2.1,2.1-2.1h50.3c1.2,0,2.1,1,2.1,2.1S132.7,991.9,131.5,991.9z"
				/>
		</g>
		<g>
			<path class="st1" d="M1238.7,991.9h-50.3c-1.2,0-2.1-1-2.1-2.1s1-2.1,2.1-2.1h50.3c1.2,0,2.1,1,2.1,2.1
				S1239.9,991.9,1238.7,991.9z"/>
		</g>
	</g>
	<g>
		<g>
			<ellipse class="st3" cx="-184.1" cy="241.5" rx="14.8" ry="3.8"/>
			<path class="st1" d="M-184.1,247.4c-4.1,0-8-0.4-11-1.2c-1.5-0.4-5.9-1.5-5.9-4.7c0-3.2,4.5-4.4,5.9-4.7c3-0.8,6.9-1.2,11-1.2
				c4.1,0,8,0.4,11,1.2c1.5,0.4,5.9,1.5,5.9,4.7c0,3.2-4.5,4.4-5.9,4.7C-176.1,247-180,247.4-184.1,247.4z M-195.9,241.5
				c1.8,0.7,5.9,1.6,11.8,1.6c5.9,0,10-0.9,11.8-1.6c-1.8-0.7-5.9-1.6-11.8-1.6C-190,239.9-194.1,240.7-195.9,241.5z M-171.3,242.1
				L-171.3,242.1L-171.3,242.1z"/>
		</g>
		<g>
			<ellipse class="st3" cx="-154.7" cy="252.4" rx="11" ry="7.2"/>
			<path class="st1" d="M-154.7,261.7c-11.1,0-13.1-3.1-13.1-9.3c0-5.2,5.8-9.3,13.1-9.3c7.4,0,13.1,4.1,13.1,9.3
				C-141.6,258.6-143.6,261.7-154.7,261.7z M-154.7,247.4c-5.2,0-8.9,2.7-8.9,5c0,3.5,0,5,8.9,5s8.9-1.6,8.9-5
				C-145.8,250-149.5,247.4-154.7,247.4z"/>
		</g>
		<g>
			<path class="st1" d="M-165.7,254.5c-0.1,0-0.2,0-0.2,0l-11.8-1.3c-0.4,0-0.9-0.2-1.2-0.5l-6.6-5.9c-0.9-0.8-1-2.1-0.2-3
				c0.8-0.9,2.1-1,3-0.2l6.1,5.4l11.2,1.2c1.2,0.1,2,1.2,1.9,2.4C-163.7,253.7-164.6,254.5-165.7,254.5z"/>
		</g>
		<g>
			<ellipse class="st3" cx="-125.3" cy="241.5" rx="14.8" ry="3.8"/>
			<path class="st1" d="M-125.3,247.4c-4.1,0-8-0.4-11-1.2c-1.5-0.4-5.9-1.5-5.9-4.7c0-3.2,4.5-4.4,5.9-4.7c3-0.8,6.9-1.2,11-1.2
				c4.1,0,8,0.4,11,1.2c1.5,0.4,5.9,1.5,5.9,4.7c0,3.2-4.5,4.4-5.9,4.7C-117.3,247-121.2,247.4-125.3,247.4z M-137.1,241.5
				c1.8,0.7,5.9,1.6,11.8,1.6c5.9,0,10-0.9,11.8-1.6c-1.8-0.7-5.9-1.6-11.8-1.6C-131.2,239.9-135.3,240.7-137.1,241.5z"/>
		</g>
		<g>
			<path class="st1" d="M-143.7,254.5c-1.1,0-2-0.8-2.1-1.9c-0.1-1.2,0.7-2.2,1.9-2.4l11.2-1.2l6.1-5.4c0.9-0.8,2.2-0.7,3,0.2
				c0.8,0.9,0.7,2.2-0.2,3l-6.6,5.9c-0.3,0.3-0.7,0.5-1.2,0.5l-11.8,1.3C-143.6,254.5-143.6,254.5-143.7,254.5z"/>
		</g>
	</g>
</g>
<g id="Original_Text_x2F_Stroke" class="st4">
	<rect class="st5" width="1320" height="1320"/>
	<line class="st6" x1="628" y1="695.4" x2="692" y2="695.4"/>
	<g class="st7">
		<line class="st8" x1="568" y1="807.3" x2="631.9" y2="807.3"/>
		<line class="st8" x1="688.1" y1="807.3" x2="752" y2="807.3"/>
	</g>
	<line class="st6" x1="538.5" y1="732.7" x2="781.5" y2="732.7"/>
	<g class="st7">
		<line class="st8" x1="808.2" y1="807.3" x2="1051.2" y2="807.3"/>
		<line class="st8" x1="268.8" y1="807.3" x2="511.8" y2="807.3"/>
	</g>
	<g class="st7">
		<line class="st8" x1="837.7" y1="732.7" x2="983.5" y2="732.7"/>
		<line class="st8" x1="336.5" y1="732.7" x2="482.3" y2="732.7"/>
	</g>
	<g class="st7">
		<line class="st8" x1="721.9" y1="770" x2="867.8" y2="770"/>
		<line class="st8" x1="452.2" y1="770" x2="598.1" y2="770"/>
	</g>
	<polyline class="st6" points="605.5,492.9 659.7,298 714.5,494.7 	"/>
	<line class="st6" x1="680.7" y1="615.3" x2="639.3" y2="615.3"/>
	<g class="st7">
		<polygon class="st8" points="573,377.1 639.3,615.3 506.7,615.3 		"/>
		<polygon class="st8" points="747,377.1 813.3,615.3 680.7,615.3 		"/>
		<line class="st8" x1="573" y1="377.1" x2="573" y2="732.7"/>
		<line class="st8" x1="747" y1="377.1" x2="747" y2="732.7"/>
	</g>
	<line class="st6" x1="660" y1="298" x2="660" y2="695.4"/>
	<text transform="matrix(1.11 0 0 0.8 73.5521 919.728)" class="st9 st10 st11 st12">H</text>
	<text transform="matrix(1.13 0 0 0.8 166.639 919.728)" class="st9 st10 st11 st13">E</text>
	<text transform="matrix(0.83 0 0 0.8 246.0585 919.728)" class="st9 st10 st11 st14">M</text>
	<text transform="matrix(1.21 0 0 0.8 341.7064 919.728)" class="st9 st10 st11 st15">L</text>
	<text transform="matrix(0.96 0 0 0.8 417.5702 919.728)" class="st9 st10 st11 st16">O</text>
	<text transform="matrix(1.08 0 0 0.8 509.3836 919.728)" class="st9 st10 st11 st17">C</text>
	<text transform="matrix(1.18 0 0 0.8 589.3827 919.728)" class="st9 st10 st11 st18">K</text>
	<text transform="matrix(1.27 0 0 0.8 686.3846 919.728)" class="st9 st10 st11 st19"> </text>
	<text transform="matrix(1.09 0 0 0.8 720.0272 919.728)" class="st9 st10 st11 st20">A</text>
	<text transform="matrix(1.13 0 0 0.8 807.37 919.728)" class="st9 st10 st11 st13">E</text>
	<text transform="matrix(1.08 0 0 0.8 886.7889 919.728)" class="st9 st10 st11 st21">R</text>
	<text transform="matrix(1.27 0 0 0.8 966.493 919.728)" class="st9 st10 st11 st22">I</text>
	<text transform="matrix(1.09 0 0 0.8 1015.5302 919.728)" class="st9 st10 st11 st23">A</text>
	<text transform="matrix(1.21 0 0 0.8 1100.6014 919.728)" class="st9 st10 st11 st15">L</text>
	<text transform="matrix(1.27 0 0 0.8 1176.4657 919.728)" class="st9 st10 st11 st19">S</text>
	<g class="st7">
		<path class="st2" d="M177,975.3c0,0.3,0,0.6-0.1,0.8c0,0.2-0.1,0.4-0.2,0.6c-0.1,0.1-0.2,0.2-0.4,0.3c-0.2,0.1-0.3,0.1-0.5,0.1
			h-16.5v11.1h15.6c0.2,0,0.3,0,0.5,0.1c0.2,0.1,0.3,0.2,0.4,0.3c0.1,0.1,0.2,0.3,0.2,0.5c0,0.2,0.1,0.5,0.1,0.9
			c0,0.3,0,0.6-0.1,0.8c0,0.2-0.1,0.4-0.2,0.6c-0.1,0.1-0.2,0.3-0.4,0.3c-0.2,0.1-0.3,0.1-0.5,0.1h-15.6v13.6c0,0.1,0,0.2-0.1,0.3
			c-0.1,0.1-0.3,0.2-0.5,0.3c-0.2,0.1-0.5,0.1-0.9,0.2c-0.4,0-0.9,0.1-1.5,0.1c-0.6,0-1,0-1.4-0.1c-0.4,0-0.7-0.1-0.9-0.2
			c-0.2-0.1-0.4-0.1-0.5-0.3c-0.1-0.1-0.1-0.2-0.1-0.3v-30.3c0-0.7,0.2-1.1,0.7-1.4c0.5-0.3,1-0.4,1.5-0.4h20.2c0.2,0,0.3,0,0.5,0.1
			c0.2,0.1,0.3,0.2,0.4,0.3c0.1,0.2,0.2,0.3,0.2,0.6C177,974.7,177,975,177,975.3z"/>
		<path class="st2" d="M214.5,1004.2c0,0.3,0,0.6-0.1,0.8c0,0.2-0.1,0.4-0.2,0.6c-0.1,0.2-0.2,0.3-0.4,0.4c-0.2,0.1-0.3,0.1-0.5,0.1
			h-19.9c-0.5,0-1-0.1-1.5-0.4c-0.5-0.3-0.7-0.7-0.7-1.4v-30.3c0-0.1,0-0.3,0.1-0.4c0.1-0.1,0.3-0.2,0.5-0.2
			c0.2-0.1,0.5-0.1,0.9-0.2c0.4,0,0.9-0.1,1.4-0.1c0.6,0,1.1,0,1.4,0.1c0.4,0,0.7,0.1,0.9,0.2c0.2,0.1,0.4,0.1,0.5,0.2
			c0.1,0.1,0.1,0.2,0.1,0.4v28.3h16.1c0.2,0,0.4,0,0.5,0.1c0.2,0.1,0.3,0.2,0.4,0.3c0.1,0.1,0.2,0.3,0.2,0.6
			C214.5,1003.6,214.5,1003.9,214.5,1004.2z"/>
		<path class="st2" d="M262.4,989.4c0,2.6-0.4,5-1.3,7.2c-0.9,2.1-2.1,3.9-3.8,5.4c-1.7,1.5-3.8,2.6-6.4,3.4s-5.6,1.2-9,1.2
			c-3.4,0-6.3-0.4-8.8-1.1c-2.5-0.7-4.5-1.8-6.1-3.2c-1.6-1.4-2.8-3.1-3.6-5.2c-0.8-2.1-1.2-4.5-1.2-7.2c0-2.6,0.4-4.9,1.3-7
			c0.9-2.1,2.1-3.9,3.9-5.4c1.7-1.5,3.9-2.6,6.4-3.4c2.6-0.8,5.6-1.2,9-1.2c3.3,0,6.2,0.4,8.7,1.1c2.5,0.7,4.5,1.8,6.1,3.2
			c1.6,1.4,2.9,3.1,3.7,5.2C262,984.4,262.4,986.8,262.4,989.4z M256.1,989.7c0-1.9-0.2-3.6-0.7-5.2c-0.5-1.6-1.2-3-2.3-4.1
			c-1.1-1.2-2.5-2.1-4.2-2.7c-1.8-0.7-3.9-1-6.5-1c-2.6,0-4.8,0.4-6.5,1.1c-1.8,0.7-3.2,1.7-4.3,2.8c-1.1,1.2-1.9,2.6-2.4,4.1
			c-0.5,1.6-0.7,3.2-0.7,5c0,1.9,0.2,3.7,0.7,5.3c0.4,1.6,1.2,3,2.2,4.2c1,1.2,2.4,2.1,4.2,2.7c1.7,0.6,3.9,1,6.6,1
			c2.6,0,4.8-0.4,6.6-1.1s3.2-1.7,4.3-2.9c1.1-1.2,1.9-2.6,2.3-4.2C255.8,993.1,256.1,991.5,256.1,989.7z"/>
		<path class="st2" d="M319.3,1005.2c-0.1,0.2-0.2,0.4-0.4,0.6c-0.2,0.1-0.4,0.3-0.8,0.3c-0.3,0.1-0.7,0.1-1.2,0.2
			c-0.5,0-1.1,0.1-1.8,0.1c-0.7,0-1.3,0-1.8-0.1c-0.5,0-0.9-0.1-1.2-0.2c-0.3-0.1-0.6-0.2-0.7-0.3c-0.2-0.1-0.3-0.3-0.4-0.6
			l-9.4-24.7h-0.1l-8.7,24.7c-0.1,0.2-0.2,0.4-0.3,0.6c-0.2,0.1-0.4,0.3-0.7,0.3c-0.3,0.1-0.7,0.1-1.2,0.2c-0.5,0-1.1,0.1-1.8,0.1
			c-0.8,0-1.4,0-1.9-0.1c-0.5,0-0.9-0.1-1.3-0.2c-0.3-0.1-0.6-0.2-0.7-0.3c-0.2-0.1-0.3-0.3-0.4-0.6L272.6,975
			c-0.1-0.4-0.2-0.7-0.2-0.9c0-0.2,0.1-0.4,0.3-0.5c0.2-0.1,0.5-0.2,1-0.2c0.4,0,1-0.1,1.8-0.1c0.7,0,1.3,0,1.7,0
			c0.4,0,0.7,0.1,1,0.1c0.2,0.1,0.4,0.2,0.5,0.3c0.1,0.1,0.1,0.3,0.2,0.5l10.1,27.4h0l9.6-27.4c0.1-0.2,0.2-0.3,0.3-0.5
			c0.1-0.1,0.3-0.2,0.5-0.3c0.2-0.1,0.6-0.1,1-0.2c0.4,0,1-0.1,1.7-0.1c0.6,0,1.2,0,1.5,0.1c0.4,0,0.7,0.1,0.9,0.2
			c0.2,0.1,0.4,0.2,0.5,0.3c0.1,0.1,0.2,0.3,0.3,0.5l10.3,27.4h0.1l9.9-27.4c0.1-0.2,0.1-0.3,0.2-0.4c0.1-0.1,0.2-0.2,0.4-0.3
			c0.2-0.1,0.5-0.1,0.9-0.2c0.4,0,0.9-0.1,1.6-0.1c0.7,0,1.2,0,1.7,0.1c0.4,0,0.7,0.1,0.9,0.2c0.2,0.1,0.3,0.3,0.3,0.5
			c0,0.2-0.1,0.5-0.2,0.9L319.3,1005.2z"/>
		<path class="st2" d="M378.7,1004.3c0,0.3-0.1,0.6-0.2,0.9c-0.2,0.2-0.4,0.4-0.6,0.6c-0.3,0.2-0.5,0.3-0.8,0.3
			c-0.3,0.1-0.6,0.1-0.9,0.1h-2c-0.6,0-1.2,0-1.6-0.1c-0.5-0.1-0.9-0.3-1.3-0.5c-0.4-0.2-0.8-0.6-1.3-1c-0.4-0.4-0.9-1-1.3-1.6
			l-13.7-18.6c-0.7-1-1.4-2-2.2-3c-0.7-1.1-1.4-2.1-2-3.1h-0.1c0,1.2,0.1,2.5,0.1,3.7c0,1.3,0,2.5,0,3.8v19.7c0,0.1,0,0.2-0.1,0.3
			c-0.1,0.1-0.3,0.2-0.5,0.3c-0.2,0.1-0.5,0.1-0.9,0.2c-0.4,0-0.9,0.1-1.4,0.1c-0.6,0-1.1,0-1.4-0.1c-0.4,0-0.7-0.1-0.9-0.2
			c-0.2-0.1-0.4-0.1-0.5-0.3c-0.1-0.1-0.1-0.2-0.1-0.3v-30.2c0-0.7,0.3-1.2,0.8-1.4c0.5-0.3,1.1-0.4,1.7-0.4h2.9
			c0.7,0,1.3,0,1.7,0.1c0.5,0.1,0.9,0.2,1.3,0.4c0.4,0.2,0.7,0.5,1.1,0.8s0.7,0.8,1.1,1.3l10.6,14.4c0.6,0.9,1.3,1.7,1.9,2.6
			c0.6,0.8,1.2,1.7,1.7,2.5c0.6,0.8,1.1,1.6,1.7,2.4c0.5,0.8,1.1,1.6,1.6,2.4h0c0-1.3-0.1-2.7-0.1-4.2c0-1.4,0-2.8,0-4.2v-17.8
			c0-0.1,0-0.2,0.1-0.3c0.1-0.1,0.3-0.2,0.5-0.3c0.2-0.1,0.5-0.1,0.9-0.2c0.4,0,0.9-0.1,1.5-0.1c0.5,0,1,0,1.4,0.1
			c0.4,0,0.7,0.1,0.9,0.2c0.2,0.1,0.4,0.2,0.5,0.3c0.1,0.1,0.1,0.2,0.1,0.3V1004.3z"/>
		<path class="st2" d="M447,1005.5c0,0.1,0,0.3-0.1,0.4c-0.1,0.1-0.2,0.2-0.5,0.3c-0.2,0.1-0.6,0.1-1,0.2c-0.4,0-1,0.1-1.7,0.1
			c-0.6,0-1.1,0-1.5-0.1c-0.4,0-0.7-0.1-0.9-0.2c-0.2-0.1-0.4-0.2-0.5-0.3c-0.1-0.1-0.2-0.3-0.3-0.5l-4.1-7.7
			c-0.5-0.9-1-1.7-1.5-2.4c-0.5-0.7-1.1-1.4-1.9-1.9c-0.7-0.5-1.6-0.9-2.5-1.2c-1-0.3-2.1-0.4-3.5-0.4h-4v13.9
			c0,0.1-0.1,0.3-0.2,0.4c-0.1,0.1-0.3,0.2-0.5,0.2c-0.2,0.1-0.5,0.1-0.9,0.2c-0.4,0-0.9,0.1-1.4,0.1c-0.6,0-1.1,0-1.4-0.1
			c-0.4,0-0.7-0.1-0.9-0.2c-0.2-0.1-0.4-0.1-0.5-0.2c-0.1-0.1-0.1-0.2-0.1-0.4v-30.3c0-0.7,0.2-1.1,0.7-1.4c0.5-0.3,1-0.4,1.5-0.4
			h9.6c1.1,0,2.1,0,2.8,0.1c0.8,0,1.4,0.1,2,0.1c1.7,0.2,3.3,0.6,4.6,1c1.3,0.5,2.5,1.1,3.4,1.8c0.9,0.7,1.6,1.6,2,2.5
			c0.5,0.9,0.7,2,0.7,3.1c0,1.1-0.2,2.1-0.6,2.9c-0.4,0.9-1,1.6-1.8,2.3c-0.8,0.7-1.7,1.2-2.7,1.7c-1.1,0.5-2.3,0.9-3.6,1.2
			c0.7,0.2,1.4,0.5,2,0.9c0.6,0.4,1.2,0.8,1.7,1.3c0.5,0.5,1,1.1,1.5,1.7c0.5,0.7,0.9,1.4,1.4,2.2l4,7.2c0.3,0.6,0.5,1,0.6,1.3
			C447,1005.2,447,1005.3,447,1005.5z M438,982.5c0-1.3-0.4-2.4-1.2-3.2c-0.8-0.9-2.1-1.5-4-1.9c-0.6-0.1-1.2-0.2-2-0.3
			c-0.7-0.1-1.7-0.1-2.9-0.1h-5v11h5.8c1.6,0,2.9-0.1,4.1-0.4c1.1-0.3,2.1-0.7,2.9-1.2c0.8-0.5,1.3-1.1,1.7-1.8
			C437.8,984,438,983.3,438,982.5z"/>
		<path class="st2" d="M466.8,1005.5c0,0.1,0,0.3-0.1,0.4c-0.1,0.1-0.3,0.2-0.5,0.2c-0.2,0.1-0.5,0.1-0.9,0.2
			c-0.4,0-0.9,0.1-1.4,0.1c-0.6,0-1,0-1.4-0.1c-0.4,0-0.7-0.1-0.9-0.2c-0.2-0.1-0.4-0.1-0.5-0.2c-0.1-0.1-0.1-0.2-0.1-0.4v-31.4
			c0-0.1,0.1-0.3,0.2-0.4c0.1-0.1,0.3-0.2,0.5-0.2c0.2-0.1,0.6-0.1,0.9-0.2c0.4,0,0.8-0.1,1.4-0.1c0.6,0,1.1,0,1.4,0.1
			c0.4,0,0.7,0.1,0.9,0.2c0.2,0.1,0.4,0.1,0.5,0.2c0.1,0.1,0.1,0.2,0.1,0.4V1005.5z"/>
		<path class="st2" d="M517.7,977.9c0,0.3,0,0.6-0.1,0.8c0,0.2-0.1,0.4-0.2,0.6c-0.1,0.2-0.2,0.3-0.3,0.3c-0.1,0.1-0.3,0.1-0.5,0.1
			c-0.3,0-0.7-0.2-1.4-0.5c-0.6-0.3-1.5-0.7-2.6-1.1c-1.1-0.4-2.4-0.7-3.9-1.1c-1.5-0.3-3.3-0.5-5.4-0.5c-2.5,0-4.7,0.3-6.7,1
			c-2,0.7-3.6,1.6-5,2.7c-1.4,1.2-2.4,2.5-3.1,4.1c-0.7,1.6-1.1,3.3-1.1,5.2c0,2.1,0.4,3.9,1.2,5.6c0.8,1.6,1.9,3,3.3,4.1
			c1.4,1.1,3.1,2,5.1,2.5c2,0.6,4.1,0.9,6.4,0.9c1.4,0,2.8-0.1,4.2-0.4c1.4-0.2,2.8-0.6,4-1.1v-9.5h-10.4c-0.4,0-0.7-0.1-0.9-0.4
			c-0.2-0.3-0.3-0.7-0.3-1.3c0-0.3,0-0.6,0.1-0.8c0-0.2,0.1-0.4,0.2-0.6c0.1-0.1,0.2-0.2,0.4-0.3c0.1-0.1,0.3-0.1,0.5-0.1h14.3
			c0.3,0,0.5,0,0.8,0.1c0.3,0.1,0.5,0.2,0.7,0.3c0.2,0.1,0.4,0.3,0.5,0.6c0.1,0.2,0.2,0.5,0.2,0.8v12.5c0,0.4-0.1,0.8-0.3,1.1
			c-0.2,0.3-0.6,0.6-1.3,0.8c-0.7,0.2-1.5,0.5-2.6,0.8c-1.1,0.3-2.2,0.5-3.3,0.7c-1.1,0.2-2.3,0.4-3.4,0.5c-1.2,0.1-2.3,0.2-3.4,0.2
			c-3.5,0-6.6-0.4-9.3-1.2c-2.7-0.8-5-1.9-6.9-3.4c-1.9-1.4-3.3-3.2-4.3-5.2c-1-2-1.5-4.3-1.5-6.8c0-2.6,0.5-4.9,1.6-7.1
			c1.1-2.1,2.6-3.9,4.6-5.4c2-1.5,4.3-2.6,7.1-3.5c2.7-0.8,5.8-1.2,9.1-1.2c1.7,0,3.3,0.1,4.8,0.3c1.5,0.2,2.8,0.5,4,0.8
			c1.2,0.3,2.2,0.6,3,1s1.3,0.6,1.7,0.8c0.3,0.2,0.5,0.5,0.6,0.8C517.6,976.9,517.7,977.3,517.7,977.9z"/>
		<path class="st2" d="M566.3,1005.5c0,0.1,0,0.3-0.1,0.4c-0.1,0.1-0.3,0.2-0.5,0.2c-0.2,0.1-0.5,0.1-0.9,0.2
			c-0.4,0-0.9,0.1-1.4,0.1c-0.6,0-1.1,0-1.5-0.1c-0.4,0-0.7-0.1-0.9-0.2c-0.2-0.1-0.4-0.1-0.5-0.2c-0.1-0.1-0.1-0.2-0.1-0.4V991
			h-20.5v14.5c0,0.1,0,0.3-0.1,0.4c-0.1,0.1-0.3,0.2-0.5,0.2c-0.2,0.1-0.5,0.1-0.9,0.2c-0.4,0-0.9,0.1-1.4,0.1c-0.6,0-1,0-1.4-0.1
			c-0.4,0-0.7-0.1-0.9-0.2c-0.2-0.1-0.4-0.1-0.5-0.2c-0.1-0.1-0.1-0.2-0.1-0.4v-31.4c0-0.1,0-0.3,0.1-0.4c0.1-0.1,0.3-0.2,0.5-0.2
			c0.2-0.1,0.5-0.1,0.9-0.2c0.4,0,0.9-0.1,1.4-0.1c0.6,0,1.1,0,1.4,0.1c0.4,0,0.7,0.1,0.9,0.2c0.2,0.1,0.4,0.1,0.5,0.2
			c0.1,0.1,0.1,0.2,0.1,0.4v13.1h20.5v-13.1c0-0.1,0-0.3,0.1-0.4c0.1-0.1,0.3-0.2,0.5-0.2c0.2-0.1,0.5-0.1,0.9-0.2
			c0.4,0,0.9-0.1,1.5-0.1c0.6,0,1,0,1.4,0.1c0.4,0,0.7,0.1,0.9,0.2c0.2,0.1,0.4,0.1,0.5,0.2c0.1,0.1,0.1,0.2,0.1,0.4V1005.5z"/>
		<path class="st2" d="M611.6,975.3c0,0.3,0,0.6-0.1,0.8c0,0.2-0.1,0.4-0.2,0.6c-0.1,0.1-0.2,0.2-0.4,0.3c-0.2,0.1-0.3,0.1-0.5,0.1
			h-12.7v28.4c0,0.1,0,0.3-0.1,0.4c-0.1,0.1-0.3,0.2-0.5,0.2c-0.2,0.1-0.5,0.1-0.9,0.2c-0.4,0-0.9,0.1-1.4,0.1c-0.6,0-1,0-1.4-0.1
			c-0.4,0-0.7-0.1-0.9-0.2c-0.2-0.1-0.4-0.1-0.5-0.2c-0.1-0.1-0.1-0.2-0.1-0.4v-28.4h-12.7c-0.2,0-0.4,0-0.5-0.1
			c-0.2-0.1-0.3-0.2-0.4-0.3c-0.1-0.1-0.2-0.3-0.2-0.6c-0.1-0.2-0.1-0.5-0.1-0.8c0-0.3,0-0.6,0.1-0.8c0.1-0.2,0.1-0.4,0.2-0.6
			c0.1-0.2,0.2-0.3,0.4-0.3c0.2-0.1,0.3-0.1,0.5-0.1h31.3c0.2,0,0.4,0,0.5,0.1c0.2,0.1,0.3,0.2,0.4,0.3c0.1,0.2,0.2,0.3,0.2,0.6
			C611.6,974.7,611.6,975,611.6,975.3z"/>
		<path class="st2" d="M622.9,1002.5c0,0.5,0,1-0.1,1.4c-0.1,0.4-0.2,0.9-0.3,1.2c-0.2,0.4-0.4,0.8-0.6,1.2c-0.3,0.4-0.6,0.8-1,1.2
			l-4.8,5.2c-0.1,0.1-0.2,0.2-0.4,0.3c-0.2,0.1-0.3,0.2-0.6,0.2c-0.2,0.1-0.5,0.1-0.8,0.1c-0.3,0-0.7,0-1.1,0c-0.4,0-0.7,0-1,0
			c-0.3,0-0.5-0.1-0.6-0.1c-0.1-0.1-0.2-0.1-0.2-0.2c0-0.1,0-0.2,0.1-0.4l4.6-7v-3.2c0-0.5,0.1-0.8,0.2-1.1c0.1-0.3,0.3-0.5,0.6-0.6
			c0.3-0.1,0.6-0.2,1-0.3c0.4,0,0.9-0.1,1.5-0.1c0.6,0,1.1,0,1.5,0.1c0.4,0.1,0.8,0.1,1,0.3c0.3,0.1,0.5,0.3,0.6,0.6
			C622.8,1001.7,622.9,1002.1,622.9,1002.5z"/>
		<path class="st2" d="M688.3,975.3c0,0.3,0,0.6-0.1,0.8c0,0.2-0.1,0.4-0.2,0.6c-0.1,0.1-0.2,0.2-0.4,0.3c-0.2,0.1-0.3,0.1-0.5,0.1
			h-12.7v28.4c0,0.1,0,0.3-0.1,0.4c-0.1,0.1-0.3,0.2-0.5,0.2c-0.2,0.1-0.5,0.1-0.9,0.2c-0.4,0-0.9,0.1-1.4,0.1c-0.6,0-1,0-1.4-0.1
			c-0.4,0-0.7-0.1-0.9-0.2c-0.2-0.1-0.4-0.1-0.5-0.2c-0.1-0.1-0.1-0.2-0.1-0.4v-28.4h-12.7c-0.2,0-0.4,0-0.5-0.1
			c-0.2-0.1-0.3-0.2-0.4-0.3c-0.1-0.1-0.2-0.3-0.2-0.6c-0.1-0.2-0.1-0.5-0.1-0.8c0-0.3,0-0.6,0.1-0.8c0.1-0.2,0.1-0.4,0.2-0.6
			c0.1-0.2,0.2-0.3,0.4-0.3c0.2-0.1,0.3-0.1,0.5-0.1h31.3c0.2,0,0.4,0,0.5,0.1c0.2,0.1,0.3,0.2,0.4,0.3c0.1,0.2,0.2,0.3,0.2,0.6
			C688.2,974.7,688.3,975,688.3,975.3z"/>
		<path class="st2" d="M732.3,1005.5c0,0.1,0,0.3-0.1,0.4c-0.1,0.1-0.3,0.2-0.5,0.2c-0.2,0.1-0.5,0.1-0.9,0.2
			c-0.4,0-0.9,0.1-1.4,0.1c-0.6,0-1.1,0-1.5-0.1c-0.4,0-0.7-0.1-0.9-0.2c-0.2-0.1-0.4-0.1-0.5-0.2c-0.1-0.1-0.1-0.2-0.1-0.4V991
			h-20.5v14.5c0,0.1,0,0.3-0.1,0.4c-0.1,0.1-0.3,0.2-0.5,0.2c-0.2,0.1-0.5,0.1-0.9,0.2c-0.4,0-0.9,0.1-1.4,0.1c-0.6,0-1,0-1.4-0.1
			c-0.4,0-0.7-0.1-0.9-0.2c-0.2-0.1-0.4-0.1-0.5-0.2c-0.1-0.1-0.1-0.2-0.1-0.4v-31.4c0-0.1,0-0.3,0.1-0.4c0.1-0.1,0.3-0.2,0.5-0.2
			c0.2-0.1,0.5-0.1,0.9-0.2c0.4,0,0.9-0.1,1.4-0.1c0.6,0,1.1,0,1.4,0.1c0.4,0,0.7,0.1,0.9,0.2c0.2,0.1,0.4,0.1,0.5,0.2
			c0.1,0.1,0.1,0.2,0.1,0.4v13.1h20.5v-13.1c0-0.1,0-0.3,0.1-0.4c0.1-0.1,0.3-0.2,0.5-0.2c0.2-0.1,0.5-0.1,0.9-0.2
			c0.4,0,0.9-0.1,1.5-0.1c0.6,0,1,0,1.4,0.1c0.4,0,0.7,0.1,0.9,0.2c0.2,0.1,0.4,0.1,0.5,0.2c0.1,0.1,0.1,0.2,0.1,0.4V1005.5z"/>
		<path class="st2" d="M774.4,1004.3c0,0.3,0,0.6-0.1,0.8c0,0.2-0.1,0.4-0.2,0.6c-0.1,0.2-0.2,0.3-0.4,0.3c-0.2,0.1-0.3,0.1-0.5,0.1
			h-21.6c-0.5,0-1-0.1-1.5-0.4c-0.5-0.3-0.7-0.7-0.7-1.4v-29.2c0-0.7,0.2-1.1,0.7-1.4c0.5-0.3,1-0.4,1.5-0.4H773
			c0.2,0,0.4,0,0.5,0.1c0.1,0.1,0.3,0.2,0.4,0.3c0.1,0.2,0.2,0.3,0.2,0.6c0.1,0.2,0.1,0.5,0.1,0.8c0,0.3,0,0.6-0.1,0.8
			c-0.1,0.2-0.1,0.4-0.2,0.6c-0.1,0.1-0.2,0.2-0.4,0.3c-0.2,0.1-0.3,0.1-0.5,0.1h-17.6v10.3h15.1c0.2,0,0.4,0,0.5,0.1
			c0.2,0.1,0.3,0.2,0.4,0.3c0.1,0.1,0.2,0.3,0.2,0.6c0,0.2,0.1,0.5,0.1,0.8c0,0.3,0,0.6-0.1,0.8c0,0.2-0.1,0.4-0.2,0.5
			c-0.1,0.1-0.2,0.2-0.4,0.3c-0.2,0.1-0.3,0.1-0.5,0.1h-15.1v11.7h17.8c0.2,0,0.4,0,0.5,0.1c0.2,0.1,0.3,0.2,0.4,0.3
			c0.1,0.1,0.2,0.3,0.2,0.6C774.4,1003.7,774.4,1004,774.4,1004.3z"/>
		<path class="st2" d="M834.2,975.3c0,0.3,0,0.6-0.1,0.8c0,0.2-0.1,0.4-0.2,0.6c-0.1,0.1-0.2,0.2-0.4,0.3c-0.2,0.1-0.3,0.1-0.5,0.1
			h-16.5v11.1h15.6c0.2,0,0.3,0,0.5,0.1c0.2,0.1,0.3,0.2,0.4,0.3c0.1,0.1,0.2,0.3,0.2,0.5c0,0.2,0.1,0.5,0.1,0.9
			c0,0.3,0,0.6-0.1,0.8c0,0.2-0.1,0.4-0.2,0.6c-0.1,0.1-0.2,0.3-0.4,0.3c-0.2,0.1-0.3,0.1-0.5,0.1h-15.6v13.6c0,0.1,0,0.2-0.1,0.3
			c-0.1,0.1-0.3,0.2-0.5,0.3c-0.2,0.1-0.5,0.1-0.9,0.2c-0.4,0-0.9,0.1-1.5,0.1c-0.6,0-1,0-1.4-0.1c-0.4,0-0.7-0.1-0.9-0.2
			c-0.2-0.1-0.4-0.1-0.5-0.3c-0.1-0.1-0.1-0.2-0.1-0.3v-30.3c0-0.7,0.2-1.1,0.7-1.4c0.5-0.3,1-0.4,1.5-0.4H833c0.2,0,0.3,0,0.5,0.1
			c0.1,0.1,0.3,0.2,0.4,0.3c0.1,0.2,0.2,0.3,0.2,0.6C834.1,974.7,834.2,975,834.2,975.3z"/>
		<path class="st2" d="M854.3,1005.5c0,0.1,0,0.3-0.1,0.4c-0.1,0.1-0.3,0.2-0.5,0.2c-0.2,0.1-0.5,0.1-0.9,0.2
			c-0.4,0-0.9,0.1-1.4,0.1c-0.6,0-1,0-1.4-0.1c-0.4,0-0.7-0.1-0.9-0.2c-0.2-0.1-0.4-0.1-0.5-0.2c-0.1-0.1-0.1-0.2-0.1-0.4v-31.4
			c0-0.1,0.1-0.3,0.2-0.4c0.1-0.1,0.3-0.2,0.5-0.2c0.2-0.1,0.6-0.1,0.9-0.2c0.4,0,0.8-0.1,1.4-0.1c0.6,0,1.1,0,1.4,0.1
			c0.4,0,0.7,0.1,0.9,0.2c0.2,0.1,0.4,0.1,0.5,0.2c0.1,0.1,0.1,0.2,0.1,0.4V1005.5z"/>
		<path class="st2" d="M901.4,1005.5c0,0.1,0,0.3-0.1,0.4c-0.1,0.1-0.2,0.2-0.5,0.3c-0.2,0.1-0.6,0.1-1,0.2s-1,0.1-1.7,0.1
			c-0.6,0-1.1,0-1.5-0.1c-0.4,0-0.7-0.1-0.9-0.2c-0.2-0.1-0.4-0.2-0.5-0.3c-0.1-0.1-0.2-0.3-0.3-0.5l-4.1-7.7
			c-0.5-0.9-1-1.7-1.5-2.4c-0.5-0.7-1.1-1.4-1.9-1.9c-0.7-0.5-1.6-0.9-2.5-1.2c-1-0.3-2.1-0.4-3.5-0.4h-4v13.9
			c0,0.1-0.1,0.3-0.2,0.4c-0.1,0.1-0.3,0.2-0.5,0.2c-0.2,0.1-0.5,0.1-0.9,0.2c-0.4,0-0.9,0.1-1.4,0.1c-0.6,0-1.1,0-1.4-0.1
			c-0.4,0-0.7-0.1-0.9-0.2c-0.2-0.1-0.4-0.1-0.5-0.2c-0.1-0.1-0.1-0.2-0.1-0.4v-30.3c0-0.7,0.2-1.1,0.7-1.4c0.5-0.3,1-0.4,1.5-0.4
			h9.6c1.1,0,2.1,0,2.8,0.1c0.8,0,1.4,0.1,2,0.1c1.7,0.2,3.3,0.6,4.6,1c1.3,0.5,2.5,1.1,3.4,1.8c0.9,0.7,1.6,1.6,2,2.5
			c0.5,0.9,0.7,2,0.7,3.1c0,1.1-0.2,2.1-0.6,2.9c-0.4,0.9-1,1.6-1.8,2.3c-0.8,0.7-1.7,1.2-2.7,1.7c-1.1,0.5-2.3,0.9-3.6,1.2
			c0.7,0.2,1.4,0.5,2,0.9c0.6,0.4,1.2,0.8,1.7,1.3c0.5,0.5,1,1.1,1.5,1.7c0.5,0.7,0.9,1.4,1.4,2.2l4,7.2c0.3,0.6,0.5,1,0.6,1.3
			C901.4,1005.2,901.4,1005.3,901.4,1005.5z M892.4,982.5c0-1.3-0.4-2.4-1.2-3.2s-2.1-1.5-4-1.9c-0.6-0.1-1.2-0.2-2-0.3
			c-0.7-0.1-1.7-0.1-2.9-0.1h-5v11h5.8c1.6,0,2.9-0.1,4.1-0.4c1.1-0.3,2.1-0.7,2.9-1.2c0.8-0.5,1.3-1.1,1.7-1.8
			C892.2,984,892.4,983.3,892.4,982.5z"/>
		<path class="st2" d="M938.4,997c0,1.5-0.4,2.9-1.2,4.1c-0.8,1.2-1.9,2.2-3.2,3c-1.4,0.8-3,1.5-4.9,1.9c-1.9,0.4-3.9,0.6-6,0.6
			c-1.5,0-2.9-0.1-4.2-0.3c-1.3-0.2-2.4-0.4-3.4-0.7c-1-0.3-1.9-0.5-2.5-0.8c-0.7-0.3-1.2-0.5-1.4-0.7c-0.3-0.2-0.5-0.5-0.6-0.8
			c-0.1-0.3-0.2-0.7-0.2-1.3c0-0.4,0-0.7,0.1-0.9c0-0.2,0.1-0.4,0.2-0.6c0.1-0.2,0.2-0.3,0.3-0.3c0.1-0.1,0.3-0.1,0.5-0.1
			c0.3,0,0.8,0.1,1.4,0.4c0.6,0.3,1.4,0.6,2.3,0.9c0.9,0.3,2,0.7,3.4,0.9c1.3,0.3,2.8,0.4,4.5,0.4c1.3,0,2.5-0.1,3.6-0.4
			c1.1-0.3,2-0.6,2.8-1.1c0.8-0.5,1.4-1,1.8-1.7c0.4-0.7,0.6-1.4,0.6-2.3c0-0.9-0.3-1.7-0.9-2.4c-0.6-0.7-1.3-1.2-2.3-1.7
			c-1-0.5-2-1-3.3-1.4c-1.2-0.4-2.5-0.8-3.7-1.3c-1.3-0.4-2.5-0.9-3.7-1.4c-1.2-0.5-2.3-1.1-3.2-1.8s-1.7-1.5-2.3-2.5
			c-0.6-1-0.9-2.1-0.9-3.4c0-1.4,0.3-2.6,1-3.7c0.7-1.1,1.6-2,2.9-2.7c1.2-0.7,2.7-1.3,4.3-1.7c1.7-0.4,3.5-0.6,5.4-0.6
			c1,0,2,0.1,3,0.2c1,0.1,2,0.3,2.9,0.5c0.9,0.2,1.7,0.4,2.4,0.7s1.2,0.5,1.4,0.6c0.2,0.2,0.4,0.3,0.4,0.4c0.1,0.1,0.1,0.2,0.2,0.4
			c0,0.1,0.1,0.3,0.1,0.5c0,0.2,0,0.5,0,0.8c0,0.3,0,0.6-0.1,0.8c0,0.2-0.1,0.4-0.2,0.6c-0.1,0.2-0.2,0.3-0.3,0.4
			c-0.1,0.1-0.3,0.1-0.4,0.1c-0.3,0-0.7-0.1-1.2-0.4c-0.5-0.2-1.2-0.5-2-0.8c-0.8-0.3-1.7-0.6-2.8-0.8c-1.1-0.2-2.3-0.4-3.6-0.4
			c-1.3,0-2.3,0.1-3.3,0.4c-0.9,0.2-1.7,0.6-2.3,1c-0.6,0.4-1.1,0.9-1.4,1.4c-0.3,0.6-0.5,1.1-0.5,1.8c0,0.9,0.3,1.7,0.9,2.4
			c0.6,0.7,1.4,1.2,2.3,1.7c1,0.5,2.1,1,3.3,1.4c1.2,0.4,2.5,0.8,3.8,1.3c1.3,0.4,2.5,0.9,3.8,1.4c1.2,0.5,2.3,1.1,3.3,1.8
			c1,0.7,1.7,1.5,2.3,2.5C938.1,994.5,938.4,995.7,938.4,997z"/>
		<path class="st2" d="M979.8,975.3c0,0.3,0,0.6-0.1,0.8c0,0.2-0.1,0.4-0.2,0.6c-0.1,0.1-0.2,0.2-0.4,0.3c-0.2,0.1-0.3,0.1-0.5,0.1
			H966v28.4c0,0.1,0,0.3-0.1,0.4c-0.1,0.1-0.3,0.2-0.5,0.2c-0.2,0.1-0.5,0.1-0.9,0.2c-0.4,0-0.9,0.1-1.4,0.1c-0.6,0-1,0-1.4-0.1
			c-0.4,0-0.7-0.1-0.9-0.2c-0.2-0.1-0.4-0.1-0.5-0.2c-0.1-0.1-0.1-0.2-0.1-0.4v-28.4h-12.7c-0.2,0-0.4,0-0.5-0.1
			c-0.2-0.1-0.3-0.2-0.4-0.3c-0.1-0.1-0.2-0.3-0.2-0.6c-0.1-0.2-0.1-0.5-0.1-0.8c0-0.3,0-0.6,0.1-0.8c0.1-0.2,0.1-0.4,0.2-0.6
			c0.1-0.2,0.2-0.3,0.4-0.3c0.2-0.1,0.3-0.1,0.5-0.1h31.3c0.2,0,0.4,0,0.5,0.1c0.2,0.1,0.3,0.2,0.4,0.3s0.2,0.3,0.2,0.6
			C979.8,974.7,979.8,975,979.8,975.3z"/>
		<path class="st2" d="M1040.9,975.3c0,0.3,0,0.6-0.1,0.8c0,0.2-0.1,0.4-0.2,0.6c-0.1,0.1-0.2,0.2-0.4,0.3c-0.2,0.1-0.3,0.1-0.5,0.1
			H1027v28.4c0,0.1,0,0.3-0.1,0.4c-0.1,0.1-0.3,0.2-0.5,0.2c-0.2,0.1-0.5,0.1-0.9,0.2c-0.4,0-0.9,0.1-1.4,0.1c-0.6,0-1,0-1.4-0.1
			c-0.4,0-0.7-0.1-0.9-0.2c-0.2-0.1-0.4-0.1-0.5-0.2c-0.1-0.1-0.1-0.2-0.1-0.4v-28.4h-12.7c-0.2,0-0.4,0-0.5-0.1
			c-0.2-0.1-0.3-0.2-0.4-0.3c-0.1-0.1-0.2-0.3-0.2-0.6c-0.1-0.2-0.1-0.5-0.1-0.8c0-0.3,0-0.6,0.1-0.8c0.1-0.2,0.1-0.4,0.2-0.6
			c0.1-0.2,0.2-0.3,0.4-0.3c0.2-0.1,0.3-0.1,0.5-0.1h31.3c0.2,0,0.4,0,0.5,0.1c0.2,0.1,0.3,0.2,0.4,0.3s0.2,0.3,0.2,0.6
			C1040.9,974.7,1040.9,975,1040.9,975.3z"/>
		<path class="st2" d="M1058.5,1005.5c0,0.1,0,0.3-0.1,0.4c-0.1,0.1-0.3,0.2-0.5,0.2c-0.2,0.1-0.5,0.1-0.9,0.2
			c-0.4,0-0.9,0.1-1.4,0.1c-0.6,0-1,0-1.4-0.1c-0.4,0-0.7-0.1-0.9-0.2c-0.2-0.1-0.4-0.1-0.5-0.2c-0.1-0.1-0.1-0.2-0.1-0.4v-31.4
			c0-0.1,0.1-0.3,0.2-0.4c0.1-0.1,0.3-0.2,0.5-0.2c0.2-0.1,0.6-0.1,0.9-0.2c0.4,0,0.8-0.1,1.4-0.1c0.6,0,1.1,0,1.4,0.1
			c0.4,0,0.7,0.1,0.9,0.2c0.2,0.1,0.4,0.1,0.5,0.2c0.1,0.1,0.1,0.2,0.1,0.4V1005.5z"/>
		<path class="st2" d="M1124.5,1005.5c0,0.1,0,0.3-0.1,0.4c-0.1,0.1-0.3,0.2-0.5,0.2c-0.2,0.1-0.5,0.1-0.9,0.2
			c-0.4,0-0.9,0.1-1.4,0.1c-0.5,0-1,0-1.4-0.1c-0.4,0-0.7-0.1-0.9-0.2c-0.2-0.1-0.4-0.1-0.5-0.2c-0.1-0.1-0.1-0.2-0.1-0.4V977h-0.1
			l-15.9,28.6c-0.1,0.1-0.2,0.2-0.3,0.3c-0.1,0.1-0.3,0.2-0.6,0.2c-0.2,0.1-0.5,0.1-0.9,0.1c-0.3,0-0.7,0-1.2,0
			c-0.5,0-0.9,0-1.3-0.1c-0.3,0-0.6-0.1-0.9-0.1c-0.2-0.1-0.4-0.1-0.5-0.2c-0.1-0.1-0.2-0.2-0.3-0.3l-15.2-28.6h0v28.5
			c0,0.1,0,0.3-0.1,0.4c-0.1,0.1-0.3,0.2-0.5,0.2c-0.2,0.1-0.5,0.1-0.9,0.2c-0.4,0-0.9,0.1-1.5,0.1c-0.6,0-1.1,0-1.4-0.1
			c-0.4,0-0.7-0.1-0.9-0.2c-0.2-0.1-0.4-0.1-0.5-0.2c-0.1-0.1-0.1-0.2-0.1-0.4v-30.1c0-0.7,0.3-1.2,0.8-1.5c0.5-0.3,1.1-0.5,1.7-0.5
			h3.7c0.8,0,1.4,0.1,2,0.2c0.6,0.1,1.1,0.3,1.5,0.5c0.4,0.2,0.8,0.5,1.1,0.8c0.3,0.3,0.5,0.7,0.7,1.2l12.9,23.7h0.2l13.4-23.6
			c0.3-0.5,0.5-0.9,0.8-1.3c0.3-0.4,0.6-0.6,1-0.8c0.4-0.2,0.8-0.4,1.2-0.5c0.4-0.1,1-0.1,1.6-0.1h3.8c0.4,0,0.7,0,1,0.1
			c0.3,0.1,0.6,0.2,0.8,0.4c0.2,0.2,0.4,0.4,0.5,0.6c0.1,0.2,0.2,0.5,0.2,0.9V1005.5z"/>
		<path class="st2" d="M1166.6,1004.3c0,0.3,0,0.6-0.1,0.8c0,0.2-0.1,0.4-0.2,0.6c-0.1,0.2-0.2,0.3-0.4,0.3
			c-0.2,0.1-0.3,0.1-0.5,0.1h-21.6c-0.5,0-1-0.1-1.5-0.4c-0.5-0.3-0.7-0.7-0.7-1.4v-29.2c0-0.7,0.2-1.1,0.7-1.4
			c0.5-0.3,1-0.4,1.5-0.4h21.3c0.2,0,0.4,0,0.5,0.1c0.2,0.1,0.3,0.2,0.4,0.3c0.1,0.2,0.2,0.3,0.2,0.6c0.1,0.2,0.1,0.5,0.1,0.8
			c0,0.3,0,0.6-0.1,0.8c-0.1,0.2-0.1,0.4-0.2,0.6c-0.1,0.1-0.2,0.2-0.4,0.3c-0.2,0.1-0.3,0.1-0.5,0.1h-17.6v10.3h15.1
			c0.2,0,0.4,0,0.5,0.1s0.3,0.2,0.4,0.3c0.1,0.1,0.2,0.3,0.2,0.6c0,0.2,0.1,0.5,0.1,0.8c0,0.3,0,0.6-0.1,0.8c0,0.2-0.1,0.4-0.2,0.5
			c-0.1,0.1-0.2,0.2-0.4,0.3c-0.2,0.1-0.3,0.1-0.5,0.1h-15.1v11.7h17.8c0.2,0,0.4,0,0.5,0.1c0.1,0.1,0.3,0.2,0.4,0.3
			c0.1,0.1,0.2,0.3,0.2,0.6C1166.6,1003.7,1166.6,1004,1166.6,1004.3z"/>
	</g>
	<g class="st7">
		<line class="st24" x1="81.3" y1="989.8" x2="131.5" y2="989.8"/>
		<line class="st24" x1="1188.5" y1="989.8" x2="1238.7" y2="989.8"/>
	</g>
	<g class="st7">
		<ellipse class="st25" cx="-174" cy="-51.5" rx="13.9" ry="3.5"/>
		<ellipse class="st25" cx="-146.4" cy="-41.2" rx="10.3" ry="6.7"/>
		<polyline class="st26" points="-174,-47.9 -167.8,-42.4 -156.7,-41.2 		"/>
		<ellipse class="st25" cx="-118.8" cy="-51.5" rx="13.9" ry="3.5"/>
		<polyline class="st26" points="-118.8,-47.9 -125,-42.4 -136.1,-41.2 		"/>
	</g>
</g>
</svg>
