<?xml version="1.0" encoding="utf-8"?>
<!-- Generator: Adobe Illustrator 28.0.0, SVG Export Plug-In . SVG Version: 6.00 Build 0)  -->
<svg version="1.1" id="Layer_1" xmlns="http://www.w3.org/2000/svg" xmlns:xlink="http://www.w3.org/1999/xlink" x="0px" y="0px"
	 viewBox="0 0 196.1 192.5" style="enable-background:new 0 0 196.1 192.5;" xml:space="preserve">
<style type="text/css">
	.st0{fill:#FFFFFF;}
</style>
<g>
	<path class="st0" d="M182.5,100.5c-0.3,2.7-0.6,5.4-0.9,8.1c-1.6,11.8-5.6,22.8-12,32.9c-7.1,11.3-16.1,20.7-27.4,27.8
		c-5.9,3.7-12.2,6.7-18.8,8.9c-3.7,1.2-6.2-0.7-6.2-4.5c0-7.6,0-15.2,0-22.7c0-4.6-0.5-9.2-3-13.2c-0.7-1.2-1.7-2.2-2.5-3.4
		c3.4-0.6,6.8-1.1,10.1-1.9c8.9-2.3,16.8-6.2,22.2-13.9c4-5.7,5.8-12.2,6.6-19c0.6-5.3,0.8-10.6-0.3-15.9c-1.1-5.3-3.4-10-7-14.1
		c-0.9-1-1-1.8-0.6-3.1c2.3-7,1.4-13.9-1.3-20.7c-0.1-0.4-0.8-0.7-1.3-0.8c-3.1-0.5-6,0.4-8.7,1.7c-4.4,2.1-8.6,4.4-13,6.6
		c-0.7,0.4-1.7,0.6-2.5,0.4c-13.6-3.4-27.2-3.4-40.8,0c-0.8,0.2-1.9-0.1-2.6-0.5c-5.5-3.5-11.4-6.3-17.7-8c-0.1,0-0.2-0.1-0.3-0.1
		c-4-0.8-4.7-0.4-5.9,3.5c-1.8,6.2-2.2,12.4,0,18.7c0.2,0.5,0,1.3-0.4,1.7c-7.2,8.1-8.9,17.8-8,28.2c0.5,6.3,2,12.4,4.8,18.1
		c3.9,7.9,10.5,12.7,18.5,15.5c5,1.8,10.3,2.7,15.6,4c0-0.3,0.1-0.1,0,0c-2.7,2.8-4.2,6.2-4.9,10.1c-0.1,0.5-0.4,1.2-0.8,1.3
		c-6,2.3-12.1,3.5-18.1-0.2c-2.7-1.7-4.7-4-6.3-6.8c-2.5-4.3-6-7.4-10.8-8.8c-1.7-0.5-3.7-0.4-5.5-0.3c-1.2,0.1-1.7,1-0.8,2
		c0.8,1,1.6,2,2.6,2.6c4.6,2.6,7.1,6.8,9.2,11.4c1.2,2.7,2.3,5.5,4.6,7.6c3.7,3.3,8.1,4.6,12.9,4.8c4,0.2,8.1,0,12.3,0
		c0-0.1,0.1,0.4,0.1,0.8c0.1,4.6,0.1,9.2,0.2,13.7c0,4.5-2.7,6.3-6.9,4.9c-22.1-7.7-38.3-22.2-49.1-42.7c-8.1-15.4-10.7-32-8.9-49.3
		c1.9-18.1,9.1-34,21.1-47.6C42.8,24.2,58.3,14.7,77,10.9c27-5.5,51.7,0,73.3,17.4c16.4,13.2,26.5,30.3,30.6,51
		c0.6,3,0.8,6.2,1.2,9.2c0.1,0.6,0.2,1.2,0.3,1.8C182.5,93.7,182.5,97.1,182.5,100.5z"/>
</g>
</svg>
