<?xml version="1.0" encoding="utf-8"?>
<!-- Generator: Adobe Illustrator 28.0.0, SVG Export Plug-In . SVG Version: 6.00 Build 0)  -->
<svg version="1.1" id="Layer_2" xmlns="http://www.w3.org/2000/svg" xmlns:xlink="http://www.w3.org/1999/xlink" x="0px" y="0px"
	 viewBox="0 0 142.9 173.8" style="enable-background:new 0 0 142.9 173.8;" xml:space="preserve">
<style type="text/css">
	.st0{fill:#FFFFFF;}
</style>
<g>
	<path class="st0" d="M80.6,173.8l-15.2,0L0,108.4l0-15.2h35.4c-10.2-9.9-16.6-23.7-16.6-39H34c0,18.9,13.5,34.7,31.4,38.3V0H73
		c29.9,0,54.2,24.3,54.2,54.2c0,15.3-6.4,29.1-16.6,39h32.3v15.2H80.6V173.8z M21.5,108.4l44,44v-44H21.5z M80.6,15.9v76.5
		C98.5,88.9,112,73.1,112,54.2S98.5,19.5,80.6,15.9z"/>
</g>
</svg>
